#N canvas 223 170 793 620 10;
#X obj 188 15 inlet;
#X obj 294 445 outlet~;
#X obj 103 175 * 0.25;
#X obj 200 174 * 0.5;
#X obj 342 42 random 100;
#X obj 328 7 bng 15 250 50 0 empty empty empty 17 7 0 10 -262144 -1
-1;
#X floatatom 247 249 5 0 0 0 - - -, f 5;
#X obj 248 213 / 100;
#X obj 209 299 *~;
#X floatatom 420 246 5 0 0 0 - - -, f 5;
#X obj 421 210 / 100;
#X obj 344 282 *~;
#X floatatom 132 278 5 0 0 0 - - -, f 5;
#X obj 133 242 / 100;
#X obj 106 323 *~;
#X floatatom 606 247 5 0 0 0 - - -, f 5;
#X obj 607 211 / 100;
#X obj 530 283 *~;
#X obj 445 142 * 2;
#X obj 192 221 osc~;
#X obj 341 165 osc~;
#X obj 527 166 osc~;
#X obj 79 219 osc~;
#X connect 0 0 2 0;
#X connect 0 0 3 0;
#X connect 0 0 18 0;
#X connect 0 0 20 0;
#X connect 2 0 22 0;
#X connect 3 0 19 0;
#X connect 4 0 7 0;
#X connect 4 0 10 0;
#X connect 4 0 13 0;
#X connect 4 0 16 0;
#X connect 5 0 4 0;
#X connect 6 0 8 1;
#X connect 7 0 6 0;
#X connect 8 0 1 0;
#X connect 9 0 11 1;
#X connect 10 0 9 0;
#X connect 11 0 1 0;
#X connect 12 0 14 1;
#X connect 13 0 12 0;
#X connect 14 0 1 0;
#X connect 15 0 17 1;
#X connect 16 0 15 0;
#X connect 17 0 1 0;
#X connect 18 0 21 0;
#X connect 19 0 8 0;
#X connect 20 0 11 0;
#X connect 21 0 17 0;
#X connect 22 0 14 0;
