#N canvas 1 41 958 1135 10;
#X obj 45 114 +~;
#X obj 45 166 *~ 0.25;
#X obj 64 85 osc~;
#X obj 26 85 osc~;
#X msg 117 101 1 1;
#X msg 145 101 0 1;
#X obj 117 126 line~;
#X obj 45 141 *~;
#X obj 64 50 t a b;
#X obj 145 83 delay 150;
#X obj 45 188 outlet~;
#X text 4 -27 DTMF - Multi-Frequency Generator;
#X obj 26 -1 inlet;
#X obj 64 28 inlet;
#X connect 0 0 7 0;
#X connect 1 0 10 0;
#X connect 2 0 0 0;
#X connect 3 0 0 0;
#X connect 4 0 6 0;
#X connect 5 0 6 0;
#X connect 6 0 7 1;
#X connect 7 0 1 0;
#X connect 8 0 2 0;
#X connect 8 1 4 0;
#X connect 8 1 9 0;
#X connect 9 0 5 0;
#X connect 12 0 3 0;
#X connect 13 0 8 0;
