#N canvas 1 71 1918 1128 10;
#N canvas 0 50 450 250 (subpatch) 0;
#X array \$0-bell 900 float 0;
#X coords 0 1 899 -1 200 140 1 0 0;
#X restore 15 208 graph;
#X obj 444 261 tgl 15 0 empty empty empty 17 7 0 10 -262144 -1 -1 1
1;
#X obj 444 281 metro 100;
#X obj 591 345 outlet~;
#X obj 607 27 inlet;
#X text 20 12 BELL;
#X obj 444 313 tabwrite~ \$0-bell;
#X obj 591 271 *~ 0.3;
#X obj 5 137 bell-partial 0.56 0.5;
#X obj 137 137 bell-partial 0.92 0.25;
#X obj 275 137 bell-partial 1.19 0.125;
#X obj 419 137 bell-partial 1.71 0.0625;
#X obj 569 137 bell-partial 2 0.03125;
#X obj 707 137 bell-partial 2.74 0.015625;
#X obj 869 137 bell-partial 3 0.0078125;
#X obj 1019 137 bell-partial 3.76 0.00390625;
#X obj 1193 137 bell-partial 4.07 0.00195312;
#X connect 1 0 2 0;
#X connect 2 0 6 0;
#X connect 4 0 8 0;
#X connect 4 0 9 0;
#X connect 4 0 10 0;
#X connect 4 0 11 0;
#X connect 4 0 12 0;
#X connect 4 0 13 0;
#X connect 4 0 14 0;
#X connect 4 0 15 0;
#X connect 4 0 16 0;
#X connect 7 0 3 0;
#X connect 7 0 6 0;
#X connect 8 0 7 0;
#X connect 9 0 7 0;
#X connect 10 0 7 0;
#X connect 11 0 7 0;
#X connect 12 0 7 0;
#X connect 13 0 7 0;
#X connect 14 0 7 0;
#X connect 15 0 7 0;
#X connect 16 0 7 0;
