#N canvas 579 194 958 538 10;
#X obj 52 37 inlet;
#X floatatom 84 174 5 0 0 1 DEBUG - -, f 5;
#X obj 53 245 outlet~;
#X text 5 10 BELL - PARTIAL FREQUENCY SYNTHESIZER;
#X obj 52 191 osc~;
#X obj 52 150 * \$1;
#X obj 53 223 *~ \$2;
#X obj 52 85 mtof;
#X connect 0 0 7 0;
#X connect 4 0 6 0;
#X connect 5 0 1 0;
#X connect 5 0 4 0;
#X connect 6 0 2 0;
#X connect 7 0 5 0;
