#N canvas 1 71 1918 1008 10;
#X obj 45 63 bng 32 250 50 0 \$0-1 empty 1 12 -8 0 12 -262144 -1 -1
;
#X obj 252 172 +~;
#X obj 252 224 *~ 0.25;
#X obj 271 143 osc~;
#X obj 233 143 osc~;
#X obj 42 278 r \$0-1;
#X obj 98 278 r \$0-2;
#X msg 344 304 697;
#X obj 162 278 r \$0-3;
#X obj 225 278 r \$0-a;
#X obj 42 313 r \$0-4;
#X obj 98 313 r \$0-5;
#X obj 162 313 r \$0-6;
#X obj 225 313 r \$0-b;
#X msg 320 347 770;
#X obj 233 57 r hiTone;
#X obj 339 447 s loTone;
#X msg 297 381 852;
#X obj 42 353 r \$0-7;
#X obj 98 353 r \$0-8;
#X obj 162 353 r \$0-9;
#X obj 225 353 r \$0-c;
#X msg 279 421 941;
#X obj 42 398 r \$0-s;
#X obj 98 398 r \$0-0;
#X obj 162 398 r \$0-h;
#X obj 225 398 r \$0-d;
#X msg 19 429 1209;
#X obj 104 468 s hiTone;
#X msg 86 430 1336;
#X msg 141 431 1477;
#X msg 207 432 1633;
#X msg 324 159 1 1;
#X msg 352 159 0 1;
#X obj 324 184 line~;
#X obj 252 199 *~;
#X obj 88 63 bng 32 250 50 0 \$0-2 empty 2 12 -8 0 12 -262144 -1 -1
;
#X obj 131 63 bng 32 250 50 0 \$0-3 empty 3 12 -8 0 12 -262144 -1 -1
;
#X obj 174 63 bng 32 250 50 0 \$0-a empty A 12 -8 0 12 -262144 -1 -1
;
#X obj 45 118 bng 32 250 50 0 \$0-4 empty 4 12 -8 0 12 -262144 -1 -1
;
#X obj 88 118 bng 32 250 50 0 \$0-5 empty 5 12 -8 0 12 -262144 -1 -1
;
#X obj 131 118 bng 32 250 50 0 \$0-6 empty 6 12 -8 0 12 -262144 -1
-1;
#X obj 174 118 bng 32 250 50 0 \$0-b empty B 12 -8 0 12 -262144 -1
-1;
#X obj 45 173 bng 32 250 50 0 \$0-7 empty 7 12 -8 0 12 -262144 -1 -1
;
#X obj 88 173 bng 32 250 50 0 \$0-8 empty 8 12 -8 0 12 -262144 -1 -1
;
#X obj 131 173 bng 32 250 50 0 \$0-9 empty 9 12 -8 0 12 -262144 -1
-1;
#X obj 174 173 bng 32 250 50 0 \$0-c empty C 12 -8 0 12 -262144 -1
-1;
#X obj 45 228 bng 32 250 50 0 \$0-s empty * 12 -8 0 12 -262144 -1 -1
;
#X obj 88 228 bng 32 250 50 0 \$0-0 empty 0 12 -8 0 12 -262144 -1 -1
;
#X obj 131 228 bng 32 250 50 0 \$0-h empty H 12 -8 0 12 -262144 -1
-1;
#X obj 174 228 bng 32 250 50 0 \$0-d empty D 12 -8 0 12 -262144 -1
-1;
#X obj 271 108 t a b;
#X obj 270 86 r loTone;
#X obj 352 141 delay 150;
#X text 76 6 DTMF Keypad;
#X obj 252 246 outlet~;
#X obj 423 37 inlet;
#X obj 423 54 sel 0 1 2 3 4 5 6 7 8 9 a b c d h s;
#X obj 423 320 s \$0-0;
#X obj 437 303 s \$0-1;
#X obj 451 287 s \$0-2;
#X obj 465 270 s \$0-3;
#X obj 479 254 s \$0-4;
#X obj 493 237 s \$0-5;
#X obj 507 221 s \$0-6;
#X obj 521 204 s \$0-7;
#X obj 536 188 s \$0-8;
#X obj 550 171 s \$0-9;
#X obj 564 155 s \$0-a;
#X obj 578 138 s \$0-b;
#X obj 593 122 s \$0-c;
#X obj 607 105 s \$0-d;
#X obj 620 89 s \$0-h;
#X obj 635 72 s \$0-s;
#X obj 715 68 sel 10 11 12 13 14 15;
#X obj 715 169 s \$0-a;
#X obj 738 152 s \$0-b;
#X obj 760 136 s \$0-c;
#X obj 782 119 s \$0-d;
#X obj 805 103 s \$0-h;
#X obj 827 86 s \$0-s;
#X text 721 37 compatibility map to use with random();
#X connect 1 0 35 0;
#X connect 2 0 55 0;
#X connect 3 0 1 0;
#X connect 4 0 1 0;
#X connect 5 0 7 0;
#X connect 5 0 27 0;
#X connect 6 0 7 0;
#X connect 6 0 29 0;
#X connect 7 0 16 0;
#X connect 8 0 7 0;
#X connect 8 0 30 0;
#X connect 9 0 7 0;
#X connect 9 0 31 0;
#X connect 10 0 14 0;
#X connect 10 0 27 0;
#X connect 11 0 14 0;
#X connect 11 0 29 0;
#X connect 12 0 14 0;
#X connect 12 0 30 0;
#X connect 13 0 14 0;
#X connect 13 0 31 0;
#X connect 14 0 16 0;
#X connect 15 0 4 0;
#X connect 17 0 16 0;
#X connect 18 0 17 0;
#X connect 18 0 27 0;
#X connect 19 0 17 0;
#X connect 19 0 29 0;
#X connect 20 0 17 0;
#X connect 20 0 30 0;
#X connect 21 0 17 0;
#X connect 21 0 31 0;
#X connect 22 0 16 0;
#X connect 23 0 22 0;
#X connect 23 0 27 0;
#X connect 24 0 22 0;
#X connect 24 0 29 0;
#X connect 25 0 22 0;
#X connect 25 0 30 0;
#X connect 26 0 22 0;
#X connect 26 0 31 0;
#X connect 27 0 28 0;
#X connect 29 0 28 0;
#X connect 30 0 28 0;
#X connect 31 0 28 0;
#X connect 32 0 34 0;
#X connect 33 0 34 0;
#X connect 34 0 35 1;
#X connect 35 0 2 0;
#X connect 51 0 3 0;
#X connect 51 1 32 0;
#X connect 51 1 53 0;
#X connect 52 0 51 0;
#X connect 53 0 33 0;
#X connect 56 0 57 0;
#X connect 57 0 58 0;
#X connect 57 1 59 0;
#X connect 57 2 60 0;
#X connect 57 3 61 0;
#X connect 57 4 62 0;
#X connect 57 5 63 0;
#X connect 57 6 64 0;
#X connect 57 7 65 0;
#X connect 57 8 66 0;
#X connect 57 9 67 0;
#X connect 57 10 68 0;
#X connect 57 11 69 0;
#X connect 57 12 70 0;
#X connect 57 13 71 0;
#X connect 57 14 72 0;
#X connect 57 15 73 0;
#X connect 57 16 74 0;
#X connect 74 0 75 0;
#X connect 74 1 76 0;
#X connect 74 2 77 0;
#X connect 74 3 78 0;
#X connect 74 4 79 0;
#X connect 74 5 80 0;
#X coords 0 -1 1 1 170 230 1 40 40;
