#N canvas 1 661 1918 538 10;
#N canvas 0 50 450 250 (subpatch) 0;
#X array \$0-klang 900 float 0;
#X coords 0 1 899 -1 200 140 1 0 0;
#X restore 645 248 graph;
#X obj 224 261 tgl 15 0 empty empty empty 17 7 0 10 -262144 -1 -1 0
1;
#X obj 224 281 metro 100;
#X obj 224 313 tabwrite~ \$0-klang;
#X obj 371 345 outlet~;
#X obj 297 27 inlet;
#X obj 467 27 inlet;
#X obj 5 113 partial \$1 1;
#X obj 102 113 partial \$1 2;
#X obj 199 113 partial \$1 3;
#X obj 296 113 partial \$1 4;
#X obj 396 114 partial \$1 5;
#X obj 490 113 partial \$1 6;
#X obj 587 113 partial \$1 7;
#X obj 684 113 partial \$1 8;
#X obj 371 271 *~ 0.1;
#X text 20 12 KLANGFARBE III;
#X connect 1 0 2 0;
#X connect 2 0 3 0;
#X connect 5 0 7 0;
#X connect 5 0 8 0;
#X connect 5 0 9 0;
#X connect 5 0 10 0;
#X connect 5 0 11 0;
#X connect 5 0 12 0;
#X connect 5 0 13 0;
#X connect 5 0 14 0;
#X connect 6 0 7 1;
#X connect 6 0 8 1;
#X connect 6 0 9 1;
#X connect 6 0 10 1;
#X connect 6 0 11 1;
#X connect 6 0 12 1;
#X connect 6 0 13 1;
#X connect 6 0 14 1;
#X connect 7 0 15 0;
#X connect 8 0 15 0;
#X connect 9 0 15 0;
#X connect 10 0 15 0;
#X connect 11 0 15 0;
#X connect 12 0 15 0;
#X connect 13 0 15 0;
#X connect 14 0 15 0;
#X connect 15 0 3 0;
#X connect 15 0 4 0;
