#N canvas 605 260 1604 776 10;
#X obj 87 251 *~;
#X obj 149 154 / 100;
#X obj 149 127 random 100;
#X obj 37 39 inlet;
#X obj 149 90 inlet;
#X floatatom 69 157 5 0 0 1 DEBUG - -, f 5;
#X floatatom 169 206 5 0 0 1 DEBUG - -, f 5;
#X obj 87 273 outlet~;
#X msg 149 178 \$1 3000;
#X obj 149 230 line~;
#X obj 37 174 \$1;
#X obj 37 133 * \$2;
#X text 5 10 PARTIAL FREQUENCY SYNTHESIZER;
#X obj 37 80 mtof;
#X connect 0 0 7 0;
#X connect 1 0 8 0;
#X connect 2 0 1 0;
#X connect 3 0 13 0;
#X connect 4 0 2 0;
#X connect 8 0 9 0;
#X connect 8 0 6 0;
#X connect 9 0 0 1;
#X connect 10 0 0 0;
#X connect 11 0 5 0;
#X connect 11 0 10 0;
#X connect 13 0 11 0;
