#N canvas 793 0 798 808 10;
#X obj 277 177 list-nth;
#X obj 277 225 outlet;
#X obj 330 60 inlet;
#X floatatom 352 226 5 0 0 1 DEBUG - -, f 5;
#X obj 330 87 random 7;
#X text 25 11 RANDOM MIDI NOTE GENERATOR;
#X msg 12 130 60 62 64 65 67 69 71;
#X msg 169 131 60 63 67 65 68 70 72;
#X connect 0 0 1 0;
#X connect 0 0 3 0;
#X connect 2 0 4 0;
#X connect 4 0 0 1;
#X connect 4 0 7 0;
#X connect 7 0 0 0;
