#N canvas -7 0 798 808 10;
#X obj 144 363 dac~;
#X obj 62 45 tgl 15 0 empty empty empty 17 7 0 10 -262144 -1 -1 1 1
;
#X obj 143 306 *~;
#X floatatom 157 44 5 0 0 0 - - -, f 5;
#X obj 239 293 hsl 128 15 0 1 0 0 empty empty Volume 136 8 0 10 -262144
-1 -1 9000 1;
#X obj 244 120 bng 15 250 50 0 empty empty empty 17 7 0 10 -262144
-1 -1;
#X obj 244 58 tgl 15 0 empty empty empty 17 7 0 10 -262144 -1 -1 1
1;
#X obj 244 88 metro 100;
#X floatatom 295 59 5 0 0 0 - - -, f 5;
#X text 16 13 STEP SEQUENCER - KLANGFARBE;
#X obj 93 680 dac~;
#X obj 54 433 tgl 15 0 empty empty empty 17 7 0 10 -262144 -1 -1 0
1;
#X obj 92 623 *~;
#X floatatom 149 432 5 0 0 0 - - -, f 5;
#X obj 231 608 hsl 128 15 0 1 0 0 empty empty Volume 136 8 0 10 -262144
-1 -1 0 1;
#X obj 91 541 - 7;
#X text 16 398 STEP SEQUENCER - BELL;
#X obj 75 77 metronome-beat;
#X obj 54 464 metronome-beat;
#X obj 54 541 + 12;
#X obj 142 248 klangfarbe osc~;
#X obj 25 197 klangfarbe osc~;
#X obj 141 1092 dac~;
#X obj 60 752 tgl 15 0 empty empty empty 17 7 0 10 -262144 -1 -1 1
1;
#X obj 141 1063 *~;
#X floatatom 155 753 5 0 0 0 - - -, f 5;
#X obj 237 1048 hsl 128 15 0 1 0 0 empty empty Volume 136 8 0 10 -262144
-1 -1 0 1;
#X obj 60 833 random-note-generator;
#X obj 60 792 metronome-beat;
#X text 13 719 STEP SEQUENCER - ADSR;
#X obj 60 920 bell;
#X obj 54 565 bell;
#X obj 91 565 bell;
#X obj 60 896 + 12;
#X obj 61 1021 *~;
#X obj 100 854 adsr;
#X obj 221 921 bell;
#X obj 261 855 adsr;
#X obj 221 1023 *~;
#X floatatom 316 755 5 0 0 0 - - -, f 5;
#X obj 221 794 metronome-beat;
#X obj 221 897 + 0;
#X obj 62 118 random-note-generator;
#X obj 54 506 random-note-generator;
#X obj 221 834 random-note-generator;
#X obj 142 204 - 36;
#X obj 25 153 - 24;
#X obj 582 184 dac~;
#X obj 460 10 tgl 15 0 empty empty empty 17 7 0 10 -262144 -1 -1 0
1;
#X obj 556 43 metro 400;
#X obj 514 454 moses;
#X obj 553 540 bassdrum;
#X obj 513 616 dac~;
#X floatatom 393 509 5 0 0 0 - - -, f 5;
#X floatatom 586 406 5 0 0 0 - - -, f 5;
#X obj 459 541 snare;
#X obj 489 503 t b;
#X obj 556 489 t b;
#X obj 540 110 snare;
#X obj 482 395 random 15;
#X obj 75 77 metronome-beat;
#X connect 1 0 17 0;
#X connect 2 0 0 0;
#X connect 2 0 0 1;
#X connect 3 0 17 1;
#X connect 4 0 2 1;
#X connect 5 0 20 1;
#X connect 5 0 21 1;
#X connect 6 0 7 0;
#X connect 7 0 5 0;
#X connect 8 0 7 1;
#X connect 11 0 18 0;
#X connect 12 0 10 0;
#X connect 12 0 10 1;
#X connect 13 0 18 1;
#X connect 14 0 12 1;
#X connect 15 0 32 0;
#X connect 17 0 42 0;
#X connect 17 0 59 0;
#X connect 18 0 43 0;
#X connect 19 0 31 0;
#X connect 20 0 2 0;
#X connect 21 0 2 0;
#X connect 23 0 28 0;
#X connect 23 0 40 0;
#X connect 24 0 22 0;
#X connect 24 0 22 1;
#X connect 25 0 28 1;
#X connect 26 0 24 1;
#X connect 27 0 33 0;
#X connect 27 0 35 0;
#X connect 28 0 27 0;
#X connect 30 0 34 0;
#X connect 31 0 12 0;
#X connect 32 0 12 0;
#X connect 33 0 30 0;
#X connect 34 0 24 0;
#X connect 35 0 34 1;
#X connect 36 0 38 0;
#X connect 37 0 38 1;
#X connect 38 0 24 0;
#X connect 39 0 40 1;
#X connect 40 0 44 0;
#X connect 41 0 36 0;
#X connect 42 0 45 0;
#X connect 42 0 46 0;
#X connect 43 0 15 0;
#X connect 43 0 19 0;
#X connect 44 0 37 0;
#X connect 44 0 41 0;
#X connect 45 0 20 0;
#X connect 46 0 21 0;
#X connect 48 0 49 0;
#X connect 49 0 58 0;
#X connect 50 0 53 0;
#X connect 50 0 56 0;
#X connect 50 1 57 0;
#X connect 51 0 52 1;
#X connect 51 0 52 0;
#X connect 54 0 50 1;
#X connect 55 0 52 0;
#X connect 55 0 52 1;
#X connect 56 0 55 0;
#X connect 57 0 51 0;
#X connect 58 0 47 0;
#X connect 58 0 47 1;
#X connect 59 0 50 0;
