#N canvas 1 41 1918 1135 10;
#X obj 325 171 ch-Maj;
#X obj 369 171 ch-min;
#X obj 360 223 ch-triad~;
#X obj 443 334 dac~;
#X obj 256 50 bng 15 250 50 0 empty empty empty 17 7 0 10 -262144 -1
-1;
#X obj 325 49 delay 1700;
#X obj 413 171 ch-dim;
#X obj 325 133 moses 40;
#X obj 389 133 moses 60;
#X obj 325 93 + 60;
#X obj 512 126 adsr;
#X obj 443 307 *~;
#X obj 382 26 + 500;
#X obj 382 2 random 500;
#X obj 325 71 random 12;
#X connect 0 0 2 0;
#X connect 0 1 2 1;
#X connect 0 2 2 2;
#X connect 1 0 2 0;
#X connect 1 1 2 1;
#X connect 1 2 2 2;
#X connect 2 0 11 0;
#X connect 4 0 5 0;
#X connect 4 0 13 0;
#X connect 5 0 4 0;
#X connect 5 0 14 0;
#X connect 6 0 2 0;
#X connect 6 1 2 1;
#X connect 6 2 2 2;
#X connect 7 0 0 0;
#X connect 7 1 8 0;
#X connect 8 0 1 0;
#X connect 8 1 6 0;
#X connect 9 0 7 0;
#X connect 9 0 10 0;
#X connect 10 0 11 1;
#X connect 11 0 3 0;
#X connect 11 0 3 1;
#X connect 12 0 5 1;
#X connect 13 0 12 0;
#X connect 14 0 9 0;
