#N canvas 1 41 1918 545 10;
#X obj 739 137 inlet;
#X obj 694 194 outlet;
#X obj 744 194 outlet;
#X obj 794 194 outlet;
#X obj 747 159 + 3;
#X obj 776 159 + 6;
#X connect 0 0 1 0;
#X connect 0 0 4 0;
#X connect 0 0 5 0;
#X connect 4 0 2 0;
#X connect 5 0 3 0;
