#N canvas 1 41 1918 545 10;
#X obj 419 168 inlet;
#X obj 456 190 + 7;
#X obj 374 225 outlet;
#X obj 424 225 outlet;
#X obj 474 225 outlet;
#X obj 427 190 + 3;
#X connect 0 0 1 0;
#X connect 0 0 2 0;
#X connect 0 0 5 0;
#X connect 1 0 4 0;
#X connect 5 0 3 0;
