#N canvas 1 41 1918 545 10;
#X obj 684 99 inlet;
#X obj 719 99 inlet;
#X obj 754 99 inlet;
#X obj 684 143 osc~;
#X obj 719 143 osc~;
#X obj 754 143 osc~;
#X obj 720 179 *~ 0.3;
#X obj 720 201 outlet~;
#X obj 684 121 mtof;
#X obj 719 121 mtof;
#X obj 754 121 mtof;
#X connect 0 0 8 0;
#X connect 1 0 9 0;
#X connect 2 0 10 0;
#X connect 3 0 6 0;
#X connect 4 0 6 0;
#X connect 5 0 6 0;
#X connect 6 0 7 0;
#X connect 8 0 3 0;
#X connect 9 0 4 0;
#X connect 10 0 5 0;
