#N canvas 119 42 1384 687 10;
#X obj 40 39 cnv 15 80 22 empty empty empty 20 12 0 14 -133169 -66577
0;
#X obj 505 629 outlet~;
#X obj 42 41 hradio 15 0 0 5 empty empty empty 0 -8 0 10 -262144 -1
-1 0;
#X floatatom 917 80 5 0 0 0 - - -, f 5;
#X msg 628 210 1;
#X obj 1022 110 sel 0 1 2 3 4;
#X msg 666 211 0;
#X obj 320 255 osc~;
#X floatatom 897 506 5 0 0 0 - - -, f 5;
#X floatatom 942 505 5 0 0 0 - - -, f 5;
#X floatatom 992 504 5 0 0 0 - - -, f 5;
#X msg 705 210 0;
#X obj 491 549 *~;
#X obj 556 554 *~;
#X obj 618 555 *~;
#X obj 374 254 phasor~;
#X msg 879 206 1;
#X msg 895 207 0;
#X msg 913 207 0;
#X obj 293 12 loadbang;
#X msg 1036 214 1;
#X msg 1057 214 0;
#X msg 1077 214 0;
#X msg 1194 215 1;
#X msg 1232 216 0;
#X msg 1271 215 0;
#X obj 673 556 *~;
#X msg 745 206 0;
#X floatatom 1052 504 5 0 0 0 - - -, f 5;
#X msg 926 208 0;
#X msg 1096 214 0;
#X msg 1300 215 0;
#X obj 524 240 sqr~;
#X obj 300 112 inlet;
#X obj 571 239 noise~;
#X obj 736 561 *~;
#X msg 1394 213 1;
#X msg 1432 214 0;
#X msg 1471 213 0;
#X msg 1522 214 0;
#X floatatom 1110 508 5 0 0 0 - - -, f 5;
#X msg 1557 211 0;
#X msg 1335 215 0;
#X msg 1119 214 0;
#X msg 942 208 0;
#X msg 784 208 0;
#X obj 442 244 tri~;
#X connect 2 0 3 0;
#X connect 3 0 5 0;
#X connect 4 0 8 0;
#X connect 5 0 4 0;
#X connect 5 0 6 0;
#X connect 5 0 11 0;
#X connect 5 0 27 0;
#X connect 5 0 45 0;
#X connect 5 1 16 0;
#X connect 5 1 17 0;
#X connect 5 1 18 0;
#X connect 5 1 29 0;
#X connect 5 1 44 0;
#X connect 5 2 20 0;
#X connect 5 2 22 0;
#X connect 5 2 21 0;
#X connect 5 2 30 0;
#X connect 5 2 43 0;
#X connect 5 3 23 0;
#X connect 5 3 24 0;
#X connect 5 3 25 0;
#X connect 5 3 31 0;
#X connect 5 3 42 0;
#X connect 5 4 36 0;
#X connect 5 4 39 0;
#X connect 5 4 38 0;
#X connect 5 4 37 0;
#X connect 5 4 41 0;
#X connect 6 0 9 0;
#X connect 7 0 12 0;
#X connect 8 0 12 1;
#X connect 9 0 13 1;
#X connect 10 0 14 1;
#X connect 11 0 10 0;
#X connect 12 0 1 0;
#X connect 13 0 1 0;
#X connect 14 0 1 0;
#X connect 15 0 13 0;
#X connect 16 0 9 0;
#X connect 17 0 8 0;
#X connect 18 0 10 0;
#X connect 19 0 2 0;
#X connect 20 0 10 0;
#X connect 21 0 9 0;
#X connect 22 0 8 0;
#X connect 23 0 28 0;
#X connect 24 0 10 0;
#X connect 25 0 9 0;
#X connect 26 0 1 0;
#X connect 27 0 28 0;
#X connect 28 0 26 1;
#X connect 29 0 28 0;
#X connect 30 0 28 0;
#X connect 31 0 8 0;
#X connect 32 0 26 0;
#X connect 33 0 7 0;
#X connect 33 0 15 0;
#X connect 33 0 32 0;
#X connect 33 0 46 0;
#X connect 34 0 35 0;
#X connect 35 0 1 0;
#X connect 36 0 40 0;
#X connect 37 0 28 0;
#X connect 38 0 10 0;
#X connect 39 0 9 0;
#X connect 40 0 35 1;
#X connect 41 0 8 0;
#X connect 42 0 40 0;
#X connect 43 0 40 0;
#X connect 44 0 40 0;
#X connect 45 0 40 0;
#X connect 46 0 14 0;
#X coords 0 -1 1 1 86 28 1 37 36;
