#N canvas 961 631 958 545 10;
#X obj 139 78 inlet;
#X obj 371 117 unpack f f f f f f f;
#X floatatom 183 214 5 0 0 0 - - -, f 5;
#X floatatom 216 214 5 0 0 0 - - -, f 5;
#X floatatom 249 214 5 0 0 0 - - -, f 5;
#X floatatom 282 214 5 0 0 0 - - -, f 5;
#X floatatom 315 214 5 0 0 0 - - -, f 5;
#X floatatom 348 214 5 0 0 0 - - -, f 5;
#X floatatom 381 214 5 0 0 0 - - -, f 5;
#X obj 139 122 select 0 1 2 3 4 5 6;
#X obj 282 256 +;
#X obj 87 172 div 7;
#X obj 371 96 inlet;
#X obj 87 194 * 12;
#X obj 139 100 mod 7;
#X obj 267 276 +;
#X obj 267 298 outlet;
#X connect 0 0 14 0;
#X connect 0 0 11 0;
#X connect 1 0 2 0;
#X connect 1 1 3 0;
#X connect 1 2 4 0;
#X connect 1 3 5 0;
#X connect 1 4 6 0;
#X connect 1 5 7 0;
#X connect 1 6 8 0;
#X connect 2 0 10 0;
#X connect 3 0 10 0;
#X connect 4 0 10 0;
#X connect 5 0 10 0;
#X connect 6 0 10 0;
#X connect 7 0 10 0;
#X connect 8 0 10 0;
#X connect 9 0 2 0;
#X connect 9 1 3 0;
#X connect 9 2 4 0;
#X connect 9 3 5 0;
#X connect 9 4 6 0;
#X connect 9 5 7 0;
#X connect 9 6 8 0;
#X connect 10 0 15 1;
#X connect 11 0 13 0;
#X connect 12 0 1 0;
#X connect 13 0 15 0;
#X connect 14 0 9 0;
#X connect 15 0 16 0;
