#N canvas 1 41 958 1135 10;
#X obj 152 10 inlet;
#X floatatom 196 146 5 0 0 0 - - -, f 5;
#X floatatom 229 146 5 0 0 0 - - -, f 5;
#X floatatom 262 146 5 0 0 0 - - -, f 5;
#X floatatom 295 146 5 0 0 0 - - -, f 5;
#X floatatom 328 146 5 0 0 0 - - -, f 5;
#X floatatom 361 146 5 0 0 0 - - -, f 5;
#X floatatom 394 146 5 0 0 0 - - -, f 5;
#X obj 295 188 +;
#X obj 384 28 inlet;
#X obj 100 126 * 12;
#X obj 280 208 +;
#X obj 280 230 outlet;
#X obj 152 32 mod 8;
#X floatatom 427 146 5 0 0 0 - - -, f 5;
#X obj 384 49 unpack f f f f f f f f;
#X obj 100 104 div 8;
#X obj 152 54 select 0 1 2 3 4 5 6 7;
#X connect 0 0 13 0;
#X connect 0 0 16 0;
#X connect 1 0 8 0;
#X connect 2 0 8 0;
#X connect 3 0 8 0;
#X connect 4 0 8 0;
#X connect 5 0 8 0;
#X connect 6 0 8 0;
#X connect 7 0 8 0;
#X connect 8 0 11 1;
#X connect 9 0 15 0;
#X connect 10 0 11 0;
#X connect 11 0 12 0;
#X connect 13 0 17 0;
#X connect 14 0 8 0;
#X connect 15 0 1 0;
#X connect 15 1 2 0;
#X connect 15 2 3 0;
#X connect 15 3 4 0;
#X connect 15 4 5 0;
#X connect 15 5 6 0;
#X connect 15 6 7 0;
#X connect 15 7 14 0;
#X connect 16 0 10 0;
#X connect 17 0 1 0;
#X connect 17 1 2 0;
#X connect 17 2 3 0;
#X connect 17 3 4 0;
#X connect 17 4 5 0;
#X connect 17 5 6 0;
#X connect 17 6 7 0;
#X connect 17 7 14 0;
