#N canvas 1 41 958 1135 10;
#X obj 97 94 inlet;
#X obj 166 65 loadbang;
#X obj 97 135 outlet;
#X obj 97 115 7-note-scale;
#X obj 223 65 inlet;
#X msg 166 94 0 2 4 5 7 9 11;
#X connect 0 0 3 0;
#X connect 1 0 5 0;
#X connect 3 0 2 0;
#X connect 4 0 5 0;
#X connect 5 0 3 1;
