#N canvas 1 41 958 1135 10;
#X obj 216 216 line~;
#X msg 280 169 1 1;
#X obj 143 119 t f b;
#X msg 216 190 0 200;
#X obj 216 169 delay 800;
#X obj 143 345 outlet~;
#X obj 267 135 * 0.8;
#X obj 143 97 inlet;
#X obj 86 176 mtof;
#X obj 136 176 mtof;
#X obj 136 155 + 12;
#X obj 143 323 *~;
#X obj 33 155 mtof;
#X obj 86 220 *~ 0.1;
#X obj 86 155 + 8;
#X obj 143 281 lop~;
#X obj 267 113 inlet;
#X obj 340 203 inlet;
#X obj 86 198 osc~;
#X obj 136 198 osc~;
#X obj 136 220 *~ 0.1;
#X obj 69 251 *~ 0.6;
#X obj 33 176 square~;
#X connect 0 0 11 1;
#X connect 1 0 0 0;
#X connect 2 0 10 0;
#X connect 2 0 12 0;
#X connect 2 0 14 0;
#X connect 2 1 1 0;
#X connect 2 1 4 0;
#X connect 3 0 0 0;
#X connect 4 0 3 0;
#X connect 6 0 4 1;
#X connect 7 0 2 0;
#X connect 8 0 18 0;
#X connect 9 0 19 0;
#X connect 10 0 9 0;
#X connect 11 0 5 0;
#X connect 12 0 22 0;
#X connect 13 0 21 0;
#X connect 14 0 8 0;
#X connect 15 0 11 0;
#X connect 16 0 6 0;
#X connect 17 0 15 1;
#X connect 18 0 13 0;
#X connect 19 0 20 0;
#X connect 20 0 21 0;
#X connect 21 0 15 0;
#X connect 22 0 21 0;
