#N canvas 1 41 958 1135 10;
#X obj 155 97 phasor~;
#X obj 155 119 expr~ $v1>0.5;
#X obj 155 141 *~ 2;
#X obj 155 163 -~ 1;
#X obj 155 185 outlet~;
#X obj 155 74 inlet;
#X connect 0 0 1 0;
#X connect 1 0 2 0;
#X connect 2 0 3 0;
#X connect 3 0 4 0;
#X connect 5 0 0 0;
