#N canvas 1 41 958 1135 10;
#X obj 15 24 tgl 15 0 empty empty empty 17 7 0 10 -262144 -1 -1 1 1
;
#X obj 15 81 metro 1000;
#X obj 154 -16 loadbang;
#X floatatom 80 56 5 0 0 0 - - -, f 5;
#X msg 154 128 47 48 49;
#X obj 147 248 r \$0-n1;
#X obj 227 248 r \$0-m;
#X obj 161 319 r \$0-t;
#X obj 315 226 r \$0-m;
#X obj 366 203 r \$0-t;
#X obj 455 224 r \$0-m;
#X obj 506 201 r \$0-t;
#X obj 275 205 r \$0-n2;
#X obj 415 204 r \$0-n3;
#X obj 455 246 delay 600;
#X obj 315 248 delay 300;
#X obj 366 226 / 3;
#X obj 506 223 / 1.5;
#X obj 275 411 *~ 0.3;
#X obj 275 433 dac~;
#X obj 387 96 s \$0-n1;
#X obj 456 97 s \$0-n2;
#X obj 526 97 s \$0-n3;
#X obj 15 103 s \$0-m;
#X obj 93 103 s \$0-t;
#X obj 154 6 bng 15 250 50 0 empty empty empty 17 7 0 10 -262144 -1
-1;
#X msg 80 35 900;
#X msg 214 128 45 47 49;
#X obj 415 368 note~;
#X obj 147 368 note~;
#X obj 275 369 note~;
#X obj 456 31 bng 15 250 50 0 empty empty empty 17 7 0 10 -262144 -1
-1;
#X obj 387 74 3random 40;
#X obj 526 74 3random 54;
#X obj 456 74 3random 48;
#X obj 456 -14 tgl 15 0 empty empty empty 17 7 0 10 -262144 -1 -1 0
1;
#X obj 456 6 metro 30000;
#X obj 50 160 vsl 15 128 40 127 0 0 empty empty empty 0 -9 0 10 -262144
-1 -1 6007 1;
#X obj 50 298 mtof;
#X obj 50 320 s \$0-cutoff;
#X obj 175 342 r \$0-cutoff;
#X obj 303 342 r \$0-cutoff;
#X obj 443 342 r \$0-cutoff;
#X msg 50 139 88;
#X obj 147 268 1of3;
#X obj 275 269 1of3;
#X obj 415 268 1of3;
#X obj 456 56 bng 15 250 50 0 empty empty empty 17 7 0 10 -262144 -1
-1;
#X obj 526 56 bng 15 250 50 0 empty empty empty 17 7 0 10 -262144 -1
-1;
#X obj 387 56 bng 15 250 50 0 empty empty empty 17 7 0 10 -262144 -1
-1;
#X obj 183 157 s \$0-n1;
#X msg 221 78 52 53 54;
#X msg 281 78 50 52 54;
#X obj 254 105 s \$0-n2;
#X msg 289 33 55 57 59;
#X obj 289 54 s \$0-n3;
#X connect 0 0 1 0;
#X connect 1 0 23 0;
#X connect 2 0 25 0;
#X connect 3 0 1 1;
#X connect 3 0 24 0;
#X connect 4 0 50 0;
#X connect 5 0 44 0;
#X connect 6 0 44 1;
#X connect 7 0 29 1;
#X connect 8 0 15 0;
#X connect 9 0 16 0;
#X connect 9 0 30 1;
#X connect 10 0 14 0;
#X connect 11 0 17 0;
#X connect 11 0 28 1;
#X connect 12 0 45 0;
#X connect 13 0 46 0;
#X connect 14 0 46 1;
#X connect 15 0 45 1;
#X connect 16 0 15 1;
#X connect 17 0 14 1;
#X connect 18 0 19 0;
#X connect 18 0 19 1;
#X connect 25 0 26 0;
#X connect 25 0 4 0;
#X connect 25 0 43 0;
#X connect 25 0 51 0;
#X connect 25 0 54 0;
#X connect 25 0 0 0;
#X connect 26 0 3 0;
#X connect 27 0 50 0;
#X connect 28 0 18 0;
#X connect 29 0 18 0;
#X connect 30 0 18 0;
#X connect 31 0 47 0;
#X connect 31 0 48 0;
#X connect 31 0 49 0;
#X connect 32 0 20 0;
#X connect 33 0 22 0;
#X connect 34 0 21 0;
#X connect 35 0 36 0;
#X connect 36 0 31 0;
#X connect 37 0 38 0;
#X connect 38 0 39 0;
#X connect 40 0 29 2;
#X connect 41 0 30 2;
#X connect 42 0 28 2;
#X connect 43 0 37 0;
#X connect 44 0 29 0;
#X connect 45 0 30 0;
#X connect 46 0 28 0;
#X connect 47 0 34 0;
#X connect 48 0 33 0;
#X connect 49 0 32 0;
#X connect 51 0 53 0;
#X connect 52 0 53 0;
#X connect 54 0 55 0;
