#N canvas 1 41 958 1135 10;
#X obj 79 55 phasor~;
#X obj 79 76 *~ 2;
#X obj 79 98 -~ 1;
#X obj 79 120 outlet~;
#X obj 79 34 inlet;
#X connect 0 0 1 0;
#X connect 1 0 2 0;
#X connect 2 0 3 0;
#X connect 4 0 0 0;
