#N canvas 1 41 958 1135 10;
#X obj 80 109 inlet;
#X obj 149 80 loadbang;
#X obj 80 150 outlet;
#X obj 80 130 7-note-scale;
#X obj 206 80 inlet;
#X msg 149 109 0 2 3 5 6 8 10;
#X connect 0 0 3 0;
#X connect 1 0 5 0;
#X connect 3 0 2 0;
#X connect 4 0 5 0;
#X connect 5 0 3 1;
