#N canvas 1709 45 849 1370 10;
#X obj 57 111 inlet;
#X obj 126 82 loadbang;
#X obj 57 152 outlet;
#X obj 183 82 inlet;
#X obj 57 132 8-note-scale;
#X msg 126 111 0 1 3 4 6 7 9 10;
#X connect 0 0 4 0;
#X connect 1 0 5 0;
#X connect 3 0 5 0;
#X connect 4 0 2 0;
#X connect 5 0 4 1;
