#N canvas 0 42 1920 1015 10;
#X obj 23 62 cnv 15 315 39 empty empty empty 20 12 0 14 -233017 -66577
0;
#X obj 352 272 noteout 10;
#X obj 32 8 inlet;
#X obj 72 8 inlet;
#X obj 112 8 inlet;
#X obj 152 8 inlet;
#X obj 192 8 inlet;
#X obj 232 8 inlet;
#X obj 272 8 inlet;
#X obj 312 8 inlet;
#X obj 352 8 inlet;
#X obj 392 8 inlet;
#X obj 432 8 inlet;
#X obj 472 8 inlet;
#X obj 512 8 inlet;
#X obj 552 8 inlet;
#X obj 592 8 inlet;
#X obj 632 8 inlet;
#X obj 672 8 inlet;
#X msg 32 136 36;
#X msg 72 136 37;
#X msg 112 136 38;
#X msg 152 136 39;
#X msg 192 136 40;
#X msg 232 136 41;
#X msg 272 136 42;
#X msg 312 136 43;
#X msg 352 136 44;
#X msg 392 136 45;
#X msg 432 136 46;
#X msg 472 136 47;
#X msg 512 136 48;
#X msg 552 136 49;
#X msg 592 136 50;
#X msg 632 136 51;
#X msg 672 136 52;
#X obj 32 83 bng 15 250 50 0 empty empty empty 17 7 0 10 -262144 -1
-1;
#X obj 50 83 bng 15 250 50 0 empty empty empty 17 7 0 10 -262144 -1
-1;
#X obj 68 83 bng 15 250 50 0 empty empty empty 17 7 0 10 -262144 -1
-1;
#X obj 86 83 bng 15 250 50 0 empty empty empty 17 7 0 10 -262144 -1
-1;
#X obj 104 83 bng 15 250 50 0 empty empty empty 17 7 0 10 -262144 -1
-1;
#X obj 122 83 bng 15 250 50 0 empty empty empty 17 7 0 10 -262144 -1
-1;
#X obj 140 83 bng 15 250 50 0 empty empty empty 17 7 0 10 -262144 -1
-1;
#X obj 158 83 bng 15 250 50 0 empty empty empty 17 7 0 10 -262144 -1
-1;
#X obj 176 83 bng 15 250 50 0 empty empty empty 17 7 0 10 -262144 -1
-1;
#X obj 194 83 bng 15 250 50 0 empty empty empty 17 7 0 10 -262144 -1
-1;
#X obj 212 83 bng 15 250 50 0 empty empty empty 17 7 0 10 -262144 -1
-1;
#X obj 230 83 bng 15 250 50 0 empty empty empty 17 7 0 10 -262144 -1
-1;
#X obj 248 83 bng 15 250 50 0 empty empty empty 17 7 0 10 -262144 -1
-1;
#X obj 266 83 bng 15 250 50 0 empty empty empty 17 7 0 10 -262144 -1
-1;
#X obj 284 83 bng 15 250 50 0 empty empty empty 17 7 0 10 -262144 -1
-1;
#X obj 302 83 bng 15 250 50 0 empty empty empty 17 7 0 10 -262144 -1
-1;
#X obj 320 83 bng 15 250 50 0 empty empty empty 17 7 0 10 -262144 -1
-1;
#X text 29 69 k1;
#X text 47 69 k2;
#X text 65 69 sn;
#X text 83 69 cp;
#X text 101 69 rm;
#X text 119 69 cl;
#X text 137 69 ch;
#X text 155 69 oh;
#X text 173 69 g1;
#X text 191 69 t1;
#X text 209 69 g2;
#X text 227 69 t2;
#X text 245 69 cy;
#X text 263 69 rv;
#X text 281 69 ms;
#X text 299 69 tb;
#X text 317 69 zp;
#X obj 352 239 makenote 127 100;
#X connect 2 0 36 0;
#X connect 3 0 37 0;
#X connect 4 0 38 0;
#X connect 5 0 39 0;
#X connect 6 0 40 0;
#X connect 7 0 41 0;
#X connect 8 0 42 0;
#X connect 9 0 43 0;
#X connect 10 0 44 0;
#X connect 11 0 45 0;
#X connect 12 0 46 0;
#X connect 13 0 47 0;
#X connect 14 0 48 0;
#X connect 15 0 49 0;
#X connect 16 0 50 0;
#X connect 17 0 51 0;
#X connect 18 0 52 0;
#X connect 19 0 70 0;
#X connect 20 0 70 0;
#X connect 21 0 70 0;
#X connect 22 0 70 0;
#X connect 23 0 70 0;
#X connect 24 0 70 0;
#X connect 25 0 70 0;
#X connect 26 0 70 0;
#X connect 27 0 70 0;
#X connect 28 0 70 0;
#X connect 29 0 70 0;
#X connect 30 0 70 0;
#X connect 31 0 70 0;
#X connect 32 0 70 0;
#X connect 33 0 70 0;
#X connect 34 0 70 0;
#X connect 35 0 70 0;
#X connect 36 0 19 0;
#X connect 37 0 20 0;
#X connect 38 0 21 0;
#X connect 39 0 22 0;
#X connect 40 0 23 0;
#X connect 41 0 24 0;
#X connect 42 0 25 0;
#X connect 43 0 26 0;
#X connect 44 0 27 0;
#X connect 45 0 28 0;
#X connect 46 0 29 0;
#X connect 47 0 30 0;
#X connect 48 0 31 0;
#X connect 49 0 32 0;
#X connect 50 0 33 0;
#X connect 51 0 34 0;
#X connect 52 0 35 0;
#X connect 70 0 1 0;
#X connect 70 1 1 1;
#X coords 0 -1 1 1 317 54 1 25 47;
