#N canvas 1 41 958 1135 10;
#X obj 84 61 phasor~;
#X obj 84 105 *~ 2;
#X obj 84 127 -~ 1;
#X obj 84 149 outlet~;
#X obj 84 38 inlet;
#X obj 84 83 expr~ $v1>$f2;
#X obj 159 36 inlet;
#X obj 199 36 loadbang;
#X msg 199 58 0.01;
#X connect 0 0 5 0;
#X connect 1 0 2 0;
#X connect 2 0 3 0;
#X connect 4 0 0 0;
#X connect 5 0 1 0;
#X connect 6 0 5 1;
#X connect 7 0 8 0;
#X connect 8 0 5 1;
