#N canvas 793 192 798 616 10;
#X obj 229 147 inlet;
#X obj 262 424 line~;
#X obj 262 487 outlet~;
#X obj 229 190 sel 0;
#X msg 229 257 stop;
#X obj 261 224 t b b b;
#X obj 334 325 pack 1 0;
#X obj 418 327 pack 0 0 0;
#X obj 418 291 delay;
#X obj 418 261 + 1;
#X obj 418 360 route 0;
#X obj 280 323 0;
#X obj 183 302 pack 0 0;
#X obj 501 27 cnv 15 98 156 empty empty empty 20 10 0 14 -260097 -66577
0;
#X obj 532 42 vsl 15 128 10 10010 1 0 empty empty D 0 -9 0 10 -228856
-1 -1 0 1;
#X obj 556 42 vsl 15 128 0.1 1.1 1 0 empty empty S 0 -9 0 10 -228856
-1 -1 0 1;
#X obj 579 42 vsl 15 128 10 10010 1 0 empty empty R 0 -9 0 10 -228856
-1 -1 0 1;
#X obj 508 42 vsl 15 128 10 10010 1 0 empty empty A 0 -9 0 10 -228856
-1 -1 0 1;
#X obj 482 203 - 10;
#X obj 521 203 - 10;
#X obj 603 203 - 10;
#X obj 559 203 - 0.1;
#X text 344 14 ADSR;
#X connect 0 0 3 0;
#X connect 1 0 2 0;
#X connect 3 0 4 0;
#X connect 3 0 12 0;
#X connect 3 1 5 0;
#X connect 4 0 8 0;
#X connect 5 0 8 0;
#X connect 5 1 6 0;
#X connect 5 2 11 0;
#X connect 6 0 1 0;
#X connect 7 0 10 0;
#X connect 8 0 7 0;
#X connect 9 0 8 0;
#X connect 10 0 1 0;
#X connect 11 0 1 0;
#X connect 12 0 1 0;
#X connect 14 0 19 0;
#X connect 15 0 21 0;
#X connect 16 0 20 0;
#X connect 17 0 18 0;
#X connect 18 0 9 0;
#X connect 18 0 6 1;
#X connect 19 0 7 2;
#X connect 20 0 12 1;
#X connect 21 0 7 1;
#X coords -1 -1 1 1 100 160 1 500 25;
