#N canvas 822 69 697 466 10;
#X obj 527 120 adsr;
#X obj 129 32 inlet;
#X obj 92 401 outlet~;
#X obj 99 332 *~;
#X floatatom 99 151 5 0 0 0 - - -, f 5;
#X floatatom 161 147 5 0 0 0 - - -, f 5;
#X msg 366 58 1;
#X floatatom 242 150 5 0 0 0 - - -, f 5;
#X floatatom 316 150 5 0 0 0 - - -, f 5;
#X msg 156 92 100;
#X obj 99 204 osc~;
#X obj 163 202 osc~;
#X obj 242 203 osc~;
#X obj 316 203 osc~;
#X msg 309 93 0;
#X msg 89 93 25;
#X msg 235 93 50;
#X connect 0 0 3 1;
#X connect 1 0 15 0;
#X connect 1 0 9 0;
#X connect 1 0 6 0;
#X connect 1 0 16 0;
#X connect 1 0 14 0;
#X connect 3 0 2 0;
#X connect 4 0 10 0;
#X connect 5 0 11 0;
#X connect 6 0 0 0;
#X connect 7 0 12 0;
#X connect 8 0 13 0;
#X connect 9 0 5 0;
#X connect 10 0 3 0;
#X connect 11 0 3 0;
#X connect 12 0 3 0;
#X connect 13 0 3 0;
#X connect 14 0 8 0;
#X connect 15 0 4 0;
#X connect 16 0 7 0;
