#N canvas 1 661 1918 538 10;
#X obj 100 51 list;
#X msg 182 132 set \, adddollar \$1;
#X obj 100 224 outlet;
#X obj 100 22 inlet;
#X obj 155 53 f \$1;
#X obj 201 23 loadbang;
#X obj 155 22 inlet;
#X obj 155 76 moses;
#X obj 182 102 + 1;
#X msg 155 132 set;
#X msg 100 192 \$1;
#X text 18 22 ABSTRACTION;
#X connect 0 0 10 0;
#X connect 1 0 10 0;
#X connect 3 0 0 0;
#X connect 4 0 7 0;
#X connect 5 0 4 0;
#X connect 6 0 4 0;
#X connect 7 0 9 0;
#X connect 7 1 8 0;
#X connect 8 0 1 0;
#X connect 9 0 10 0;
#X connect 10 0 2 0;
