#N canvas 961 827 958 349 10;
#X obj 42 63 cnv 15 128 62 empty empty empty 20 12 0 14 -228011 -66577
0;
#X floatatom 4 227 5 0 0 0 - - -, f 5;
#X obj 16 414 *~;
#X obj 59 382 line~;
#X msg 123 335 1 1;
#X obj 59 335 delay 1.5;
#X msg 4 270 880;
#X msg 43 270 440;
#X obj 16 305 t f b;
#X obj 16 382 osc~;
#X msg 59 356 0 200;
#X obj 149 77 tgl 15 0 empty empty on 0 -10 0 10 -199729 -1 -1 0 1
;
#X obj 47 104 hradio 15 0 0 7 empty \$0-beatradio empty 0 -8 0 10 -199729
-248341 -1 6;
#X floatatom 46 77 5 3 8 2 beats - -, f 5;
#X obj 46 -1 loadbang;
#X msg 46 21 4;
#X msg 88 21 112;
#X obj 101 159 expr 60000 / $f1;
#X obj -41 147 s \$0-beatradio;
#X msg -41 125 number \$1;
#X obj 16 443 outlet~;
#X floatatom 88 77 5 50 220 2 tempo - -, f 5;
#X obj 74 182 metro;
#X obj 149 21 inlet;
#X obj 178 250 outlet;
#X obj 223 250 outlet;
#X obj 74 205 counter 0 1 4;
#X obj 4 248 route 1;
#X obj 74 227 - 1;
#X obj 74 249 s \$0-beatradio;
#X connect 1 0 27 0;
#X connect 2 0 20 0;
#X connect 3 0 2 1;
#X connect 4 0 3 0;
#X connect 5 0 10 0;
#X connect 6 0 8 0;
#X connect 7 0 8 0;
#X connect 8 0 9 0;
#X connect 8 1 5 0;
#X connect 8 1 4 0;
#X connect 9 0 2 0;
#X connect 10 0 3 0;
#X connect 11 0 22 0;
#X connect 13 0 26 4;
#X connect 13 0 19 0;
#X connect 14 0 15 0;
#X connect 14 0 16 0;
#X connect 15 0 13 0;
#X connect 16 0 21 0;
#X connect 17 0 22 1;
#X connect 19 0 18 0;
#X connect 21 0 17 0;
#X connect 22 0 24 0;
#X connect 22 0 26 0;
#X connect 23 0 11 0;
#X connect 26 0 1 0;
#X connect 26 0 25 0;
#X connect 26 0 28 0;
#X connect 27 0 6 0;
#X connect 27 1 7 0;
#X connect 28 0 29 0;
#X coords 0 -1 1 1 130 80 1 41 48;
