#N canvas 1 71 958 1128 10;
#X obj 18 171 metro;
#X obj 108 59 inlet;
#X obj 18 42 inlet;
#X obj 18 203 outlet;
#X floatatom 57 152 5 0 0 0 - - -, f 5;
#X obj 45 126 /;
#X floatatom 135 109 5 0 0 0 - - -, f 5;
#X obj 108 85 t b f;
#X msg 45 87 60000;
#X text 16 12 BPM METRONOME;
#X connect 0 0 3 0;
#X connect 1 0 7 0;
#X connect 2 0 0 0;
#X connect 2 0 8 0;
#X connect 5 0 0 1;
#X connect 5 0 4 0;
#X connect 7 0 5 0;
#X connect 7 1 5 1;
#X connect 7 1 6 0;
#X connect 8 0 5 0;
