#N canvas 713 136 669 614 10;
#X floatatom 326 238 5 0 0 0 - - -, f 5;
#X obj 336 537 dac~;
#X obj 325 198 timer;
#X obj 210 15 bng 15 250 50 0 empty empty empty 17 7 0 10 -262144 -1
-1;
#X obj 329 418 osc~;
#X obj 327 146 metro 10;
#X obj 329 369 + 200;
#X obj 328 332 * 200;
#X obj 328 281 tan;
#X obj 390 282 sin;
#X obj 394 362 + 200;
#X obj 393 325 * 200;
#X obj 392 410 osc~;
#X floatatom 521 247 5 0 0 0 - - -, f 5;
#X floatatom 521 296 5 0 0 0 - - -, f 5;
#X connect 0 0 8 0;
#X connect 0 0 9 0;
#X connect 2 0 0 0;
#X connect 3 0 2 0;
#X connect 3 0 5 0;
#X connect 4 0 1 0;
#X connect 4 0 1 1;
#X connect 5 0 2 1;
#X connect 6 0 4 0;
#X connect 7 0 6 0;
#X connect 8 0 7 0;
#X connect 9 0 11 0;
#X connect 10 0 12 0;
#X connect 11 0 10 0;
#X connect 12 0 1 0;
#X connect 12 0 1 1;
#X connect 13 0 7 1;
#X connect 13 0 11 1;
#X connect 14 0 6 1;
#X connect 14 0 10 1;
