#N canvas 1 41 958 1135 10;
#X obj 196 494 osc~;
#X obj 196 473 mtof;
#X obj 225 605 dac~;
#X obj 196 122 metro 100;
#X obj 196 102 tgl 15 0 empty empty empty 17 7 0 10 -262144 -1 -1 0
1;
#X obj 196 408 bartok;
#X obj 196 451 +;
#X obj 225 579 *~;
#X obj 240 559 tgl 15 0 empty empty empty 17 7 0 10 -262144 -1 -1 0
1;
#X floatatom 196 176 5 0 0 0 - - -, f 5;
#X obj 196 154 f;
#X obj 247 100 hsl 128 15 50 300 1 0 empty empty empty -2 -8 0 10 -262144
-1 -1 12700 1;
#X floatatom 258 122 5 0 0 0 - - -, f 5;
#X obj 247 55 loadbang;
#X msg 247 77 250;
#X msg 211 429 52;
#X obj 226 154 + 1;
#X floatatom 196 334 5 0 0 0 - - -, f 5;
#X obj 196 312 f;
#X obj 196 213 mod 2;
#X obj 196 235 sel 0 1;
#X msg 196 257 2;
#X msg 224 257 -1;
#X obj 226 312 + 1;
#X obj 196 357 mod 21;
#X obj 256 473 mtof;
#X obj 256 408 bartok;
#X obj 256 451 +;
#X obj 225 537 *~ 0.5;
#X obj 256 494 osc~;
#X obj 160 134 bng 15 250 50 0 empty empty empty 17 7 0 10 -262144
-1 -1;
#X obj 256 383 + 3;
#X connect 0 0 28 0;
#X connect 1 0 0 0;
#X connect 3 0 10 0;
#X connect 4 0 3 0;
#X connect 5 0 6 0;
#X connect 6 0 1 0;
#X connect 7 0 2 0;
#X connect 7 0 2 1;
#X connect 8 0 7 1;
#X connect 9 0 19 0;
#X connect 10 0 9 0;
#X connect 10 0 16 0;
#X connect 11 0 3 1;
#X connect 11 0 12 0;
#X connect 13 0 14 0;
#X connect 14 0 11 0;
#X connect 15 0 6 1;
#X connect 15 0 27 1;
#X connect 16 0 10 1;
#X connect 17 0 24 0;
#X connect 18 0 17 0;
#X connect 18 0 23 1;
#X connect 19 0 20 0;
#X connect 20 0 21 0;
#X connect 20 1 22 0;
#X connect 21 0 23 0;
#X connect 22 0 23 0;
#X connect 23 0 18 0;
#X connect 24 0 5 0;
#X connect 24 0 31 0;
#X connect 25 0 29 0;
#X connect 26 0 27 0;
#X connect 27 0 25 0;
#X connect 28 0 7 0;
#X connect 29 0 28 0;
#X connect 30 0 10 0;
#X connect 31 0 26 0;
