#N canvas 1 41 1918 1135 10;
#X obj 150 473 mtof;
#X obj 150 595 dac~;
#X obj 196 122 metro 100;
#X obj 196 102 tgl 15 0 empty empty empty 17 7 0 10 -262144 -1 -1 1
1;
#X obj 150 451 +;
#X obj 150 569 *~;
#X obj 165 549 tgl 15 0 empty empty empty 17 7 0 10 -262144 -1 -1 1
1;
#X floatatom 196 176 5 0 0 0 - - -, f 5;
#X obj 196 154 f;
#X obj 247 100 hsl 128 15 50 300 1 0 empty empty empty -2 -8 0 10 -262144
-1 -1 9350 1;
#X floatatom 258 122 5 0 0 0 - - -, f 5;
#X obj 247 55 loadbang;
#X msg 247 77 250;
#X obj 226 154 + 1;
#X floatatom 150 324 5 0 0 0 - - -, f 5;
#X obj 150 302 f;
#X obj 536 213 mod 2;
#X obj 536 235 sel 0 1;
#X obj 180 302 + 1;
#X obj 160 134 bng 15 250 50 0 empty empty empty 17 7 0 10 -262144
-1 -1;
#X obj 165 405 loadbang;
#X msg 536 257 2;
#X msg 564 257 -1;
#X obj 196 197 s \$0-arpin;
#X obj 180 257 r \$0-arpout;
#X obj 536 158 r \$0-arpin;
#X obj 536 284 s \$0-arpout;
#X floatatom 180 279 5 0 0 0 - - -, f 5;
#X obj 677 208 mod 5;
#X obj 677 230 sel 0 1 2 3 4;
#X msg 677 272 1;
#X msg 716 272 5;
#X obj 677 294 s \$0-arpout;
#X obj 803 368 s \$0-arpout;
#X msg 803 316 6;
#X msg 872 316 -4;
#X obj 803 252 mod 8;
#X obj 803 274 sel 0 1 2 3 4 5 6 7;
#X msg 165 428 28;
#X msg 835 316 -2;
#X obj 150 516 lop~ 300;
#X obj 150 494 square~;
#X obj 75 299 >= 1;
#X msg 75 341 0;
#X obj 75 321 select 1;
#X obj 75 277 div 48;
#X obj 949 368 s \$0-arpout;
#X obj 949 252 mod 8;
#X obj 949 274 sel 0 1 2 3 4 5 6 7;
#X msg 949 316 -6;
#X msg 981 316 2;
#X msg 1018 316 4;
#X msg 89 217 30;
#X connect 0 0 41 0;
#X connect 2 0 8 0;
#X connect 3 0 2 0;
#X connect 4 0 0 0;
#X connect 5 0 1 0;
#X connect 5 0 1 1;
#X connect 6 0 5 1;
#X connect 7 0 23 0;
#X connect 8 0 7 0;
#X connect 8 0 13 0;
#X connect 9 0 2 1;
#X connect 9 0 10 0;
#X connect 11 0 12 0;
#X connect 12 0 9 0;
#X connect 13 0 8 1;
#X connect 14 0 4 0;
#X connect 15 0 14 0;
#X connect 15 0 18 1;
#X connect 15 0 45 0;
#X connect 16 0 17 0;
#X connect 17 0 21 0;
#X connect 17 1 22 0;
#X connect 18 0 15 0;
#X connect 19 0 8 0;
#X connect 20 0 38 0;
#X connect 21 0 26 0;
#X connect 22 0 26 0;
#X connect 24 0 27 0;
#X connect 25 0 36 0;
#X connect 27 0 18 0;
#X connect 28 0 29 0;
#X connect 29 0 30 0;
#X connect 29 1 30 0;
#X connect 29 2 30 0;
#X connect 29 3 30 0;
#X connect 29 4 31 0;
#X connect 30 0 32 0;
#X connect 31 0 32 0;
#X connect 34 0 33 0;
#X connect 35 0 33 0;
#X connect 36 0 37 0;
#X connect 37 0 34 0;
#X connect 37 1 34 0;
#X connect 37 2 34 0;
#X connect 37 3 39 0;
#X connect 37 4 35 0;
#X connect 37 5 35 0;
#X connect 37 6 35 0;
#X connect 37 7 39 0;
#X connect 38 0 4 1;
#X connect 39 0 33 0;
#X connect 40 0 5 0;
#X connect 41 0 40 0;
#X connect 42 0 44 0;
#X connect 43 0 15 0;
#X connect 44 0 43 0;
#X connect 45 0 42 0;
#X connect 47 0 48 0;
#X connect 48 0 49 0;
#X connect 48 1 49 0;
#X connect 48 2 49 0;
#X connect 48 3 50 0;
#X connect 48 4 51 0;
#X connect 48 5 51 0;
#X connect 48 6 51 0;
#X connect 48 7 50 0;
#X connect 49 0 46 0;
#X connect 50 0 46 0;
#X connect 51 0 46 0;
#X connect 52 0 15 0;
