#N canvas 446 149 732 545 10;
#X obj 401 204 line~;
#X obj 380 268 *~;
#X obj 393 98 t b b;
#X msg 446 134 1 0;
#X msg 354 132 0 200;
#X obj 293 130 inlet~;
#X obj 382 310 outlet~;
#X obj 394 47 inlet;
#X connect 0 0 1 1;
#X connect 1 0 6 0;
#X connect 2 0 4 0;
#X connect 2 1 3 0;
#X connect 3 0 0 0;
#X connect 4 0 0 0;
#X connect 5 0 1 0;
#X connect 7 0 2 0;
