#N canvas -8 -8 1584 806 10;
#X obj 1095 1110 dac~;
#X obj 1102 223 metro 200;
#X obj 1088 83 tgl 15 0 empty empty ON\ /\ OFF 17 7 0 10 -262144 -1
-1 0 1;
#X floatatom 265 390 5 0 0 0 - - -, f 5;
#X floatatom 1165 171 5 0 0 0 - - -, f 5;
#X obj 775 973 *~ 0.25;
#X obj 177 340 list-nth;
#X obj 327 354 list-nth;
#X floatatom 352 393 5 0 0 0 - - -, f 5;
#X obj 462 365 list-nth;
#X floatatom 487 404 5 0 0 0 - - -, f 5;
#X obj 975 90 loadbang;
#X msg 916 137 150;
#X floatatom 155 390 5 0 0 0 - - -, f 5;
#X obj 67 340 list-nth;
#X obj 106 535 vsti~;
#X obj 554 530 vsti~;
#X obj 774 535 vsti~;
#X obj 327 535 vsti~;
#X msg 143 188 240 480 560 640 720 360 120;
#X obj 295 241 random 7;
#X obj 314 293 random 7;
#X obj 394 297 random 7;
#X obj 529 308 random 7;
#X obj 123 454 * 0.25;
#X obj 276 446 * 0.5;
#X obj 419 445 * 1;
#X obj 564 441 * 2;
#X obj 1097 1053 beat;
#X obj 688 375 list-nth;
#X floatatom 713 414 5 0 0 0 - - -, f 5;
#X obj 755 318 random 7;
#X obj 907 529 vsti~;
#X obj 818 451 * 0.125;
#X connect 1 0 20 0;
#X connect 1 0 21 0;
#X connect 1 0 22 0;
#X connect 1 0 23 0;
#X connect 1 0 28 1;
#X connect 1 0 19 0;
#X connect 1 0 31 0;
#X connect 2 0 1 0;
#X connect 3 0 25 0;
#X connect 4 0 1 1;
#X connect 5 0 28 0;
#X connect 6 0 3 0;
#X connect 7 0 8 0;
#X connect 8 0 26 0;
#X connect 9 0 10 0;
#X connect 10 0 27 0;
#X connect 11 0 1 0;
#X connect 11 0 12 0;
#X connect 12 0 4 0;
#X connect 13 0 24 0;
#X connect 14 0 13 0;
#X connect 15 0 5 0;
#X connect 16 0 5 0;
#X connect 17 0 5 0;
#X connect 18 0 5 0;
#X connect 19 0 6 0;
#X connect 19 0 7 0;
#X connect 19 0 9 0;
#X connect 19 0 14 0;
#X connect 19 0 29 0;
#X connect 20 0 14 1;
#X connect 21 0 6 1;
#X connect 22 0 7 1;
#X connect 23 0 9 1;
#X connect 24 0 15 0;
#X connect 25 0 18 0;
#X connect 26 0 16 0;
#X connect 27 0 17 0;
#X connect 28 0 0 0;
#X connect 28 0 0 1;
#X connect 29 0 30 0;
#X connect 30 0 33 0;
#X connect 31 0 29 1;
#X connect 32 0 5 0;
#X connect 33 0 32 0;
