#N canvas 1 41 958 1135 10;
#X obj 161 295 osc~;
#X obj 161 274 mtof;
#X obj 211 387 dac~;
#X obj 211 86 metro 100;
#X obj 211 56 tgl 15 0 empty empty empty 17 7 0 10 -262144 -1 -1 1
1;
#X obj 161 200 bartok;
#X obj 161 137 random 7;
#X obj 161 252 +;
#X obj 211 295 osc~;
#X obj 211 274 mtof;
#X obj 211 200 bartok;
#X obj 211 252 +;
#X obj 261 295 osc~;
#X obj 261 274 mtof;
#X obj 261 200 bartok;
#X obj 261 252 +;
#X obj 261 179 + 4;
#X msg 312 200 52;
#X obj 262 65 + 200;
#X obj 262 43 random 800;
#X obj 211 361 *~ 0.3;
#X obj 161 119 bng 15 250 50 0 empty empty empty 17 7 0 10 -262144
-1 -1;
#X obj 211 179 + 2;
#X obj 111 274 mtof;
#X obj 111 200 bartok;
#X obj 111 252 +;
#X obj 111 179 - 7;
#X obj 111 317 *~ 0.2;
#X obj 111 295 osc~;
#X connect 0 0 20 0;
#X connect 1 0 0 0;
#X connect 3 0 19 0;
#X connect 3 0 21 0;
#X connect 4 0 3 0;
#X connect 5 0 7 0;
#X connect 6 0 5 0;
#X connect 6 0 16 0;
#X connect 6 0 22 0;
#X connect 6 0 26 0;
#X connect 7 0 1 0;
#X connect 8 0 20 0;
#X connect 9 0 8 0;
#X connect 10 0 11 0;
#X connect 11 0 9 0;
#X connect 12 0 20 0;
#X connect 13 0 12 0;
#X connect 14 0 15 0;
#X connect 15 0 13 0;
#X connect 16 0 14 0;
#X connect 17 0 7 1;
#X connect 17 0 11 1;
#X connect 17 0 15 1;
#X connect 17 0 25 1;
#X connect 18 0 3 1;
#X connect 19 0 18 0;
#X connect 20 0 2 0;
#X connect 20 0 2 1;
#X connect 21 0 6 0;
#X connect 22 0 10 0;
#X connect 23 0 28 0;
#X connect 24 0 25 0;
#X connect 25 0 23 0;
#X connect 26 0 24 0;
#X connect 27 0 20 0;
#X connect 28 0 27 0;
