#N canvas 966 240 745 609 10;
#X obj 257 419 outlet~;
#X obj 150 241 *~;
#X obj 313 11 inlet;
#X obj 108 122 noise~;
#X obj 176 269 hip~;
#X obj 195 309 lop~;
#X obj 163 106 adsr~ 1 50 50 50;
#X obj 371 101 noise~;
#X obj 395 201 *~;
#X obj 421 229 hip~;
#X obj 440 269 lop~;
#X msg 442 131 2000;
#X obj 245 362 *~ 0.1;
#X msg 299 148 5000;
#X msg 333 222 6000;
#X msg 494 191 3000;
#X obj 366 359 *~;
#X obj 534 271 osc~ 1000;
#X connect 1 0 4 0;
#X connect 2 0 13 0;
#X connect 2 0 14 0;
#X connect 2 0 6 0;
#X connect 2 0 11 0;
#X connect 3 0 1 0;
#X connect 4 0 5 0;
#X connect 5 0 12 0;
#X connect 6 0 1 1;
#X connect 6 0 8 1;
#X connect 7 0 8 0;
#X connect 8 0 9 0;
#X connect 9 0 10 0;
#X connect 10 0 12 0;
#X connect 11 0 9 1;
#X connect 12 0 16 1;
#X connect 13 0 4 1;
#X connect 14 0 5 1;
#X connect 15 0 10 1;
#X connect 16 0 0 0;
#X connect 17 0 16 0;
