#N canvas 966 240 745 609 10;
#X obj 144 459 outlet~;
#X obj 313 11 inlet;
#X msg 368 182 5, f 8;
#X obj 142 221 line~;
#X obj 233 299 vcf~;
#X obj 213 207 noise~;
#X obj 305 92 t b b;
#X obj 149 398 *~;
#X msg 129 141 1 \, 0.7 60 \, 0 100;
#X msg 296 164 8000;
#X obj 437 339 vcf~;
#X obj 417 247 noise~;
#X msg 500 204 4000;
#X msg 572 216 2000, f 8;
#X obj 249 359 *~ 0.5;
#X connect 1 0 6 0;
#X connect 2 0 4 2;
#X connect 3 0 7 0;
#X connect 4 0 14 0;
#X connect 5 0 4 0;
#X connect 6 0 8 0;
#X connect 6 1 2 0;
#X connect 6 1 9 0;
#X connect 6 1 12 0;
#X connect 6 1 13 0;
#X connect 7 0 0 0;
#X connect 8 0 3 0;
#X connect 9 0 4 1;
#X connect 10 0 14 0;
#X connect 11 0 10 0;
#X connect 12 0 10 1;
#X connect 13 0 10 2;
#X connect 14 0 7 1;
