#N canvas 1 41 958 1135 10;
#X obj 45 65 bng 32 250 50 0 \$0-1 empty 1 12 -8 0 12 -262144 -1 -1
;
#X obj 61 368 r \$0-1;
#X obj 117 368 r \$0-2;
#X msg 363 394 697;
#X obj 181 368 r \$0-3;
#X obj 244 368 r \$0-a;
#X obj 61 403 r \$0-4;
#X obj 117 403 r \$0-5;
#X obj 181 403 r \$0-6;
#X obj 244 403 r \$0-b;
#X msg 339 437 770;
#X msg 316 471 852;
#X obj 61 443 r \$0-7;
#X obj 117 443 r \$0-8;
#X obj 181 443 r \$0-9;
#X obj 244 443 r \$0-c;
#X msg 298 511 941;
#X obj 61 488 r \$0-s;
#X obj 117 488 r \$0-0;
#X obj 181 488 r \$0-h;
#X obj 244 488 r \$0-d;
#X msg 38 519 1209;
#X msg 105 520 1336;
#X msg 160 521 1477;
#X msg 226 522 1633;
#X obj 88 65 bng 32 250 50 0 \$0-2 empty 2 12 -8 0 12 -262144 -1 -1
;
#X obj 131 65 bng 32 250 50 0 \$0-3 empty 3 12 -8 0 12 -262144 -1 -1
;
#X obj 174 65 bng 32 250 50 0 \$0-a empty A 12 -8 0 12 -262144 -1 -1
;
#X obj 45 120 bng 32 250 50 0 \$0-4 empty 4 12 -8 0 12 -262144 -1 -1
;
#X obj 88 120 bng 32 250 50 0 \$0-5 empty 5 12 -8 0 12 -262144 -1 -1
;
#X obj 131 120 bng 32 250 50 0 \$0-6 empty 6 12 -8 0 12 -262144 -1
-1;
#X obj 174 120 bng 32 250 50 0 \$0-b empty B 12 -8 0 12 -262144 -1
-1;
#X obj 45 175 bng 32 250 50 0 \$0-7 empty 7 12 -8 0 12 -262144 -1 -1
;
#X obj 88 175 bng 32 250 50 0 \$0-8 empty 8 12 -8 0 12 -262144 -1 -1
;
#X obj 131 175 bng 32 250 50 0 \$0-9 empty 9 12 -8 0 12 -262144 -1
-1;
#X obj 174 175 bng 32 250 50 0 \$0-c empty C 12 -8 0 12 -262144 -1
-1;
#X obj 45 230 bng 32 250 50 0 \$0-s empty * 12 -8 0 12 -262144 -1 -1
;
#X obj 88 230 bng 32 250 50 0 \$0-0 empty 0 12 -8 0 12 -262144 -1 -1
;
#X obj 131 230 bng 32 250 50 0 \$0-h empty H 12 -8 0 12 -262144 -1
-1;
#X obj 174 230 bng 32 250 50 0 \$0-d empty D 12 -8 0 12 -262144 -1
-1;
#X obj 243 40 inlet;
#X obj 243 57 sel 0 1 2 3 4 5 6 7 8 9 a b c d h s;
#X obj 243 323 s \$0-0;
#X obj 257 306 s \$0-1;
#X obj 271 290 s \$0-2;
#X obj 285 273 s \$0-3;
#X obj 299 257 s \$0-4;
#X obj 313 240 s \$0-5;
#X obj 327 224 s \$0-6;
#X obj 341 207 s \$0-7;
#X obj 356 191 s \$0-8;
#X obj 370 174 s \$0-9;
#X obj 384 158 s \$0-a;
#X obj 398 141 s \$0-b;
#X obj 413 125 s \$0-c;
#X obj 427 108 s \$0-d;
#X obj 440 92 s \$0-h;
#X obj 455 75 s \$0-s;
#X obj 535 71 sel 10 11 12 13 14 15;
#X obj 535 172 s \$0-a;
#X obj 558 155 s \$0-b;
#X obj 580 139 s \$0-c;
#X obj 602 122 s \$0-d;
#X obj 625 106 s \$0-h;
#X obj 647 89 s \$0-s;
#X text 541 40 compatibility map to use with random();
#X text 16 6 DTMF - Keypad & Input Section;
#X obj 311 579 multifreq-osc;
#X obj 311 601 outlet~;
#X connect 1 0 3 0;
#X connect 1 0 21 0;
#X connect 2 0 3 0;
#X connect 2 0 22 0;
#X connect 3 0 67 1;
#X connect 4 0 3 0;
#X connect 4 0 23 0;
#X connect 5 0 3 0;
#X connect 5 0 24 0;
#X connect 6 0 10 0;
#X connect 6 0 21 0;
#X connect 7 0 10 0;
#X connect 7 0 22 0;
#X connect 8 0 10 0;
#X connect 8 0 23 0;
#X connect 9 0 10 0;
#X connect 9 0 24 0;
#X connect 10 0 67 1;
#X connect 11 0 67 1;
#X connect 12 0 11 0;
#X connect 12 0 21 0;
#X connect 13 0 11 0;
#X connect 13 0 22 0;
#X connect 14 0 11 0;
#X connect 14 0 23 0;
#X connect 15 0 11 0;
#X connect 15 0 24 0;
#X connect 16 0 67 1;
#X connect 17 0 16 0;
#X connect 17 0 21 0;
#X connect 18 0 16 0;
#X connect 18 0 22 0;
#X connect 19 0 16 0;
#X connect 19 0 23 0;
#X connect 20 0 16 0;
#X connect 20 0 24 0;
#X connect 21 0 67 0;
#X connect 22 0 67 0;
#X connect 23 0 67 0;
#X connect 24 0 67 0;
#X connect 40 0 41 0;
#X connect 41 0 42 0;
#X connect 41 1 43 0;
#X connect 41 2 44 0;
#X connect 41 3 45 0;
#X connect 41 4 46 0;
#X connect 41 5 47 0;
#X connect 41 6 48 0;
#X connect 41 7 49 0;
#X connect 41 8 50 0;
#X connect 41 9 51 0;
#X connect 41 10 52 0;
#X connect 41 11 53 0;
#X connect 41 12 54 0;
#X connect 41 13 55 0;
#X connect 41 14 56 0;
#X connect 41 15 57 0;
#X connect 41 16 58 0;
#X connect 58 0 59 0;
#X connect 58 1 60 0;
#X connect 58 2 61 0;
#X connect 58 3 62 0;
#X connect 58 4 63 0;
#X connect 58 5 64 0;
#X connect 67 0 68 0;
#X coords 0 -1 1 1 170 230 1 40 40;
