#N canvas 961 71 958 538 10;
#X obj 215 198 mtof;
#X obj 222 476 dac~;
#X obj 197 265 osc~;
#X obj 223 125 random-note-generator;
#X obj 232 75 metronome-beat;
#X obj 213 15 tgl 15 0 empty empty empty 17 7 0 10 -262144 -1 -1 0
1;
#X obj 281 173 vsl 15 128 0 1 0 0 empty empty empty 0 -9 0 10 -262144
-1 -1 0 1;
#X obj 219 419 *~;
#X floatatom 318 25 5 0 0 0 - - -, f 5;
#X obj 150 51 vsl 15 128 0.1 4 1 0 empty empty empty 0 -9 0 10 -262144
-1 -1 6937 1;
#X obj 148 229 *~;
#X obj 103 43 vsl 15 128 0.1 4 1 0 empty empty empty 0 -9 0 10 -262144
-1 -1 5541 1;
#X obj 99 229 *~;
#X obj 100 280 osc~;
#X obj 243 262 osc~;
#X msg 95 8 0.5;
#X msg 152 18 0.75;
#X obj 226 163 - 12;
#X connect 0 0 10 0;
#X connect 0 0 12 0;
#X connect 0 0 14 0;
#X connect 2 0 7 0;
#X connect 3 0 17 0;
#X connect 4 0 3 0;
#X connect 5 0 4 0;
#X connect 6 0 7 1;
#X connect 7 0 1 0;
#X connect 7 0 1 1;
#X connect 8 0 4 1;
#X connect 9 0 10 1;
#X connect 10 0 2 0;
#X connect 11 0 12 1;
#X connect 12 0 13 0;
#X connect 13 0 7 0;
#X connect 14 0 7 0;
#X connect 15 0 11 0;
#X connect 16 0 9 0;
#X connect 17 0 0 0;
