#N canvas 793 0 798 808 10;
#X obj 121 44 inlet;
#X obj 121 66 phasor~;
#X obj 121 138 -~;
#X obj 121 160 *~ 2;
#X obj 121 182 outlet~;
#X obj 139 115 wrap~;
#X obj 139 93 +~ 0.5;
#X connect 0 0 1 0;
#X connect 1 0 2 0;
#X connect 1 0 6 0;
#X connect 2 0 3 0;
#X connect 3 0 4 0;
#X connect 5 0 2 1;
#X connect 6 0 5 0;
