#N canvas 961 631 958 545 10;
#X obj 168 56 tgl 15 0 empty empty empty 17 7 0 10 -262144 -1 -1 1
1;
#X obj 168 76 metro 1000;
#X obj 225 53 random 2000;
#X obj 168 98 random 4;
#X msg 211 168 330;
#X obj 168 120 select 0 1 2 3;
#X msg 151 168 110;
#X msg 181 168 220;
#X msg 241 168 440;
#X obj 166 256 osc~;
#X obj 166 397 dac~;
#X obj 248 332 delread~ test 600;
#X obj 241 284 delwrite~ test 600;
#X connect 0 0 1 0;
#X connect 1 0 2 0;
#X connect 1 0 3 0;
#X connect 2 0 1 1;
#X connect 3 0 5 0;
#X connect 4 0 9 0;
#X connect 5 0 6 0;
#X connect 5 1 7 0;
#X connect 5 2 4 0;
#X connect 5 3 8 0;
#X connect 6 0 9 0;
#X connect 7 0 9 0;
#X connect 8 0 9 0;
#X connect 9 0 10 0;
#X connect 9 0 12 0;
#X connect 11 0 10 1;
