#N canvas 157 138 608 622 10;
#X obj 267 519 outlet~;
#X obj 270 141 * -1;
#X msg 332 141 0;
#X obj 220 250 phasor~;
#X obj 221 289 *~ 2;
#X obj 220 333 -~ 1;
#X obj 297 249 phasor~;
#X obj 298 288 *~ 2;
#X obj 297 332 -~ 1;
#X obj 296 373 clip~ 0 1;
#X obj 214 371 clip~ 0 1;
#X obj 236 81 inlet;
#X obj 266 422 +~;
#X obj 274 463 *~ 0.7;
#X connect 1 0 6 0;
#X connect 2 0 3 1;
#X connect 2 0 6 1;
#X connect 3 0 4 0;
#X connect 4 0 5 0;
#X connect 5 0 10 0;
#X connect 6 0 7 0;
#X connect 7 0 8 0;
#X connect 8 0 9 0;
#X connect 9 0 12 1;
#X connect 10 0 12 0;
#X connect 11 0 1 0;
#X connect 11 0 3 0;
#X connect 12 0 13 0;
#X connect 13 0 0 0;
