#N canvas 1 41 958 1135 10;
#X obj 34 -4 unpack f f f;
#X floatatom 33 53 5 0 0 0 - - -, f 5;
#X floatatom 68 53 5 0 0 0 - - -, f 5;
#X floatatom 104 53 5 0 0 0 - - -, f 5;
#X floatatom 68 88 5 0 0 0 - - -, f 5;
#X obj 152 -43 random 3;
#X obj 152 2 route 0 1 2;
#X obj 34 -90 inlet;
#X obj 152 -91 inlet;
#X obj 284 33 hradio 15 0 0 3 empty \$0-sel empty 0 -8 0 10 -262144
-1 -1 0;
#X floatatom 332 33 5 0 0 0 - #0-mnote -, f 5;
#X obj 77 114 s \$0-mnote;
#X obj 163 -19 s \$0-sel;
#X obj 68 138 outlet;
#X connect 0 0 1 0;
#X connect 0 1 2 0;
#X connect 0 2 3 0;
#X connect 1 0 4 0;
#X connect 2 0 4 0;
#X connect 3 0 4 0;
#X connect 4 0 11 0;
#X connect 4 0 13 0;
#X connect 5 0 6 0;
#X connect 5 0 12 0;
#X connect 6 0 1 0;
#X connect 6 1 2 0;
#X connect 6 2 3 0;
#X connect 7 0 0 0;
#X connect 8 0 5 0;
#X coords 0 -1 1 1 87 45 1 281 11;
