#N canvas 1 41 958 1135 10;
#X obj 138 154 pack f f f;
#X obj 96 122 + \$1;
#X obj 166 122 + \$1;
#X obj 236 122 + \$1;
#X obj 166 41 inlet;
#X obj 138 176 outlet;
#X obj 96 76 random 8;
#X obj 166 76 random 8;
#X obj 236 76 random 8;
#X obj 96 98 scale/\$2;
#X obj 166 98 scale/\$2;
#X obj 236 98 scale/\$2;
#X connect 0 0 5 0;
#X connect 1 0 0 0;
#X connect 2 0 0 1;
#X connect 3 0 0 2;
#X connect 4 0 6 0;
#X connect 4 0 7 0;
#X connect 4 0 8 0;
#X connect 6 0 9 0;
#X connect 7 0 10 0;
#X connect 8 0 11 0;
#X connect 9 0 1 0;
#X connect 10 0 2 0;
#X connect 11 0 3 0;
