#N canvas 1 41 958 1135 10;
#X obj 196 594 osc~;
#X obj 196 573 mtof;
#X obj 256 705 dac~;
#X obj 196 122 metro 100;
#X obj 196 102 tgl 15 0 empty empty empty 17 7 0 10 -262144 -1 -1 1
1;
#X obj 196 551 +;
#X obj 256 679 *~;
#X obj 271 659 tgl 15 0 empty empty empty 17 7 0 10 -262144 -1 -1 0
1;
#X floatatom 196 176 5 0 0 0 - - -, f 5;
#X obj 196 154 f;
#X obj 247 100 hsl 128 15 50 300 1 0 empty empty empty -2 -8 0 10 -262144
-1 -1 11408 1;
#X floatatom 258 122 5 0 0 0 - - -, f 5;
#X obj 247 55 loadbang;
#X msg 247 77 250;
#X msg 271 519 52;
#X obj 226 154 + 1;
#X floatatom 196 334 5 0 0 0 - - -, f 5;
#X obj 196 312 f;
#X obj 196 213 mod 2;
#X obj 196 235 sel 0 1;
#X msg 196 257 2;
#X msg 224 257 -1;
#X obj 226 312 + 1;
#X obj 196 357 mod 21;
#X obj 256 573 mtof;
#X obj 256 551 +;
#X obj 256 594 osc~;
#X obj 160 134 bng 15 250 50 0 empty empty empty 17 7 0 10 -262144
-1 -1;
#X obj 256 403 + 3;
#X msg 271 319 2;
#X msg 304 319 3;
#X msg 336 319 4;
#X obj 271 496 loadbang;
#X obj 336 594 osc~;
#X obj 336 573 mtof;
#X obj 336 551 +;
#X obj 336 404 + 4;
#X obj 256 637 *~ 0.3;
#X obj 336 361 + 2;
#X obj 196 428 scale/halfdim;
#X obj 256 448 scale/halfdim;
#X obj 336 468 scale/halfdim;
#X connect 0 0 37 0;
#X connect 1 0 0 0;
#X connect 3 0 9 0;
#X connect 4 0 3 0;
#X connect 5 0 1 0;
#X connect 6 0 2 0;
#X connect 6 0 2 1;
#X connect 7 0 6 1;
#X connect 8 0 18 0;
#X connect 9 0 8 0;
#X connect 9 0 15 0;
#X connect 10 0 3 1;
#X connect 10 0 11 0;
#X connect 12 0 13 0;
#X connect 13 0 10 0;
#X connect 14 0 5 1;
#X connect 14 0 25 1;
#X connect 14 0 35 1;
#X connect 15 0 9 1;
#X connect 16 0 23 0;
#X connect 17 0 16 0;
#X connect 17 0 22 1;
#X connect 18 0 19 0;
#X connect 19 0 20 0;
#X connect 19 1 21 0;
#X connect 20 0 22 0;
#X connect 21 0 22 0;
#X connect 22 0 17 0;
#X connect 23 0 28 0;
#X connect 23 0 36 0;
#X connect 23 0 39 0;
#X connect 24 0 26 0;
#X connect 25 0 24 0;
#X connect 26 0 37 0;
#X connect 27 0 9 0;
#X connect 28 0 40 0;
#X connect 29 0 28 1;
#X connect 29 0 38 0;
#X connect 30 0 28 1;
#X connect 30 0 38 0;
#X connect 31 0 28 1;
#X connect 31 0 38 0;
#X connect 32 0 14 0;
#X connect 33 0 37 0;
#X connect 34 0 33 0;
#X connect 35 0 34 0;
#X connect 36 0 41 0;
#X connect 37 0 6 0;
#X connect 38 0 36 1;
#X connect 39 0 5 0;
#X connect 40 0 25 0;
#X connect 41 0 35 0;
