#N canvas 1 41 958 1135 10;
#X obj 34 281 sel 0;
#X obj 300 71 tgl 15 0 empty empty empty 17 7 0 10 -262144 -1 -1 0
1;
#X obj 34 398 noteout 10;
#X msg 83 302 36;
#X msg 2 304 42;
#X obj 300 142 count 8;
#X msg 34 303 40;
#X obj 83 280 sel 0;
#X obj 83 260 mod 4;
#X obj 34 240 + 2;
#X obj 34 261 mod 4;
#X obj 300 96 metro 250;
#X obj 150 271 sel 0;
#X obj 412 247 random 6;
#X msg 427 344 36;
#X obj 150 365 +;
#X obj 150 313 +;
#X obj 377 97 bng 15 250 50 0 empty empty empty 17 7 0 10 -262144 -1
-1;
#X obj 592 302 list-nth;
#X obj 654 248 mod 4;
#X obj 592 327 +;
#X obj 592 393 +;
#X obj 412 225 sel 0;
#X obj 150 290 delay 1;
#X msg 592 278 0 2 6 4;
#X obj 654 228 +;
#X obj 669 203 hradio 15 1 0 8 empty empty empty 0 -8 0 10 -262144
-1 -1 7;
#X obj 150 335 scale/major;
#X obj 592 362 scale/major;
#X obj 150 251 mod 2;
#X obj 150 408 makenote 127 500;
#X obj 669 156 loadbang;
#X msg 669 178 7;
#X obj 427 321 loadbang;
#X obj 592 415 + 12;
#X obj 150 387 - 12;
#X obj 34 365 makenote 100 500;
#X obj 308 406 sel 0;
#X obj 308 428 delay 1;
#X obj 308 450 +;
#X obj 218 552 scale/major;
#X obj 218 574 +;
#X obj 218 618 makenote 127 2000;
#X obj 328 618 makenote 127 2000;
#X obj 438 618 makenote 127 2000;
#X obj 328 553 scale/major;
#X obj 328 575 +;
#X obj 438 552 scale/major;
#X obj 438 574 +;
#X obj 218 596 - 0;
#X obj 328 597 - 0;
#X obj 438 596 - 0;
#X obj 150 438 noteout 4;
#X obj 328 531 + 2;
#X obj 438 530 + 11;
#X obj 592 465 noteout 8;
#X obj 328 670 noteout 5;
#X obj 592 437 makenote 110 500;
#X connect 0 0 6 0;
#X connect 1 0 11 0;
#X connect 3 0 36 0;
#X connect 4 0 36 0;
#X connect 5 0 4 0;
#X connect 5 0 9 0;
#X connect 5 0 8 0;
#X connect 5 0 22 0;
#X connect 5 0 25 0;
#X connect 5 0 29 0;
#X connect 5 0 37 0;
#X connect 6 0 36 0;
#X connect 7 0 3 0;
#X connect 8 0 7 0;
#X connect 9 0 10 0;
#X connect 10 0 0 0;
#X connect 11 0 5 0;
#X connect 12 0 23 0;
#X connect 13 0 16 1;
#X connect 13 0 20 1;
#X connect 13 0 39 1;
#X connect 14 0 15 1;
#X connect 14 0 21 1;
#X connect 14 0 41 1;
#X connect 14 0 46 1;
#X connect 14 0 48 1;
#X connect 15 0 35 0;
#X connect 16 0 27 0;
#X connect 17 0 5 0;
#X connect 18 0 20 0;
#X connect 19 0 18 1;
#X connect 19 0 24 0;
#X connect 20 0 28 0;
#X connect 21 0 34 0;
#X connect 22 0 13 0;
#X connect 23 0 16 0;
#X connect 24 0 18 0;
#X connect 25 0 19 0;
#X connect 26 0 25 1;
#X connect 27 0 15 0;
#X connect 28 0 21 0;
#X connect 29 0 12 0;
#X connect 30 0 52 0;
#X connect 30 1 52 1;
#X connect 31 0 32 0;
#X connect 32 0 26 0;
#X connect 33 0 14 0;
#X connect 34 0 57 0;
#X connect 35 0 30 0;
#X connect 36 0 2 0;
#X connect 36 1 2 1;
#X connect 37 0 38 0;
#X connect 38 0 39 0;
#X connect 39 0 40 0;
#X connect 39 0 53 0;
#X connect 39 0 54 0;
#X connect 40 0 41 0;
#X connect 41 0 49 0;
#X connect 42 0 56 0;
#X connect 42 1 56 1;
#X connect 43 0 56 0;
#X connect 43 1 56 1;
#X connect 44 0 56 0;
#X connect 44 1 56 1;
#X connect 45 0 46 0;
#X connect 46 0 50 0;
#X connect 47 0 48 0;
#X connect 48 0 51 0;
#X connect 49 0 42 0;
#X connect 50 0 43 0;
#X connect 51 0 44 0;
#X connect 53 0 45 0;
#X connect 54 0 47 0;
#X connect 57 0 55 0;
#X connect 57 1 55 1;
