#N canvas 0 42 2560 1375 10;
#X obj 300 71 tgl 15 0 empty empty empty 17 7 0 10 -262144 -1 -1 0
1;
#X obj 64 398 noteout 10;
#X msg 64 282 36;
#X msg 152 282 42;
#X obj 300 142 count 8;
#X msg 114 282 40;
#X obj 64 240 mod 4;
#X obj 114 219 + 2;
#X obj 300 96 metro 250;
#X obj 220 271 sel 0;
#X obj 482 247 random 6;
#X obj 220 377 +;
#X obj 220 313 +;
#X obj 377 97 bng 15 250 50 0 empty empty empty 17 7 0 10 -262144 -1
-1;
#X obj 662 302 list-nth;
#X obj 724 248 mod 4;
#X obj 662 327 +;
#X obj 662 413 +;
#X obj 482 225 sel 0;
#X obj 220 290 delay 1;
#X msg 662 278 0 2 6 4;
#X obj 724 228 +;
#X obj 739 203 hradio 15 1 0 8 empty empty empty 0 -8 0 10 -262144
-1 -1 3;
#X obj 220 251 mod 2;
#X obj 220 420 makenote 127 500;
#X obj 739 161 loadbang;
#X msg 739 182 7;
#X obj 662 435 + 12;
#X obj 220 399 - 12;
#X obj 64 315 makenote 100 500;
#X obj 378 386 sel 0;
#X obj 378 408 delay 1;
#X obj 378 430 +;
#X obj 287 604 +;
#X obj 397 605 +;
#X obj 507 604 +;
#X obj 287 626 - 0;
#X obj 397 627 - 0;
#X obj 507 626 - 0;
#X obj 220 450 noteout 4;
#X obj 397 511 + 2;
#X obj 507 510 + 11;
#X obj 662 485 noteout 8;
#X obj 397 700 noteout 5;
#X obj 662 457 makenote 110 500;
#X obj 534 36 loadbang;
#X msg 534 76 symbol major;
#X obj 534 101 s \$0-scale;
#X obj 662 362 scales;
#X obj 695 343 r \$0-scale;
#X msg 622 76 symbol bartok;
#X msg 714 76 symbol halfdim;
#X msg 810 76 symbol octatonic;
#X obj 220 335 scales;
#X obj 253 316 r \$0-scale;
#X obj 287 552 scales;
#X obj 397 552 scales;
#X obj 507 552 scales;
#X obj 320 532 r \$0-scale;
#X obj 430 532 r \$0-scale;
#X obj 540 532 r \$0-scale;
#X obj 677 391 r \$0-offset;
#X obj 522 583 r \$0-offset;
#X obj 412 583 r \$0-offset;
#X obj 302 583 r \$0-offset;
#X obj 235 357 r \$0-offset;
#X msg 453 76 36;
#X obj 453 101 s \$0-offset;
#X obj 534 56 bng 15 250 50 0 empty empty empty 17 7 0 10 -262144 -1
-1;
#X obj 72 335 makenote 100 500;
#X obj 82 355 makenote 100 500;
#X obj 287 648 makenote 100 2000;
#X obj 397 648 makenote 100 2000;
#X obj 507 648 makenote 100 2000;
#X obj 64 260 sel 0;
#X obj 114 240 mod 4;
#X obj 114 259 sel 0;
#X connect 0 0 8 0;
#X connect 2 0 29 0;
#X connect 3 0 70 0;
#X connect 4 0 18 0;
#X connect 4 0 21 0;
#X connect 4 0 23 0;
#X connect 4 0 30 0;
#X connect 4 0 6 0;
#X connect 4 0 7 0;
#X connect 4 0 3 0;
#X connect 5 0 69 0;
#X connect 6 0 74 0;
#X connect 7 0 75 0;
#X connect 8 0 4 0;
#X connect 9 0 19 0;
#X connect 10 0 12 1;
#X connect 10 0 16 1;
#X connect 10 0 32 1;
#X connect 11 0 28 0;
#X connect 12 0 53 0;
#X connect 13 0 4 0;
#X connect 14 0 16 0;
#X connect 15 0 20 0;
#X connect 15 0 14 1;
#X connect 16 0 48 0;
#X connect 17 0 27 0;
#X connect 18 0 10 0;
#X connect 19 0 12 0;
#X connect 20 0 14 0;
#X connect 21 0 15 0;
#X connect 22 0 21 1;
#X connect 23 0 9 0;
#X connect 24 0 39 0;
#X connect 24 1 39 1;
#X connect 25 0 26 0;
#X connect 26 0 22 0;
#X connect 27 0 44 0;
#X connect 28 0 24 0;
#X connect 29 0 1 0;
#X connect 29 1 1 1;
#X connect 30 0 31 0;
#X connect 31 0 32 0;
#X connect 32 0 40 0;
#X connect 32 0 41 0;
#X connect 32 0 55 0;
#X connect 33 0 36 0;
#X connect 34 0 37 0;
#X connect 35 0 38 0;
#X connect 36 0 71 0;
#X connect 37 0 72 0;
#X connect 38 0 73 0;
#X connect 40 0 56 0;
#X connect 41 0 57 0;
#X connect 44 0 42 0;
#X connect 44 1 42 1;
#X connect 45 0 68 0;
#X connect 46 0 47 0;
#X connect 48 0 17 0;
#X connect 49 0 48 1;
#X connect 50 0 47 0;
#X connect 51 0 47 0;
#X connect 52 0 47 0;
#X connect 53 0 11 0;
#X connect 54 0 53 1;
#X connect 55 0 33 0;
#X connect 56 0 34 0;
#X connect 57 0 35 0;
#X connect 58 0 55 1;
#X connect 59 0 56 1;
#X connect 60 0 57 1;
#X connect 61 0 17 1;
#X connect 62 0 35 1;
#X connect 63 0 34 1;
#X connect 64 0 33 1;
#X connect 65 0 11 1;
#X connect 66 0 67 0;
#X connect 68 0 66 0;
#X connect 68 0 46 0;
#X connect 69 0 1 0;
#X connect 69 1 1 1;
#X connect 70 0 1 0;
#X connect 70 1 1 1;
#X connect 71 0 43 0;
#X connect 71 1 43 1;
#X connect 72 0 43 0;
#X connect 72 1 43 1;
#X connect 73 0 43 0;
#X connect 73 1 43 1;
#X connect 74 0 2 0;
#X connect 75 0 76 0;
#X connect 76 0 5 0;
