#N canvas 0 42 2560 1375 10;
#X obj 74 281 sel 0;
#X obj 300 71 tgl 15 0 empty empty empty 17 7 0 10 -262144 -1 -1 0
1;
#X obj 74 398 noteout 10;
#X msg 123 302 36;
#X msg 42 304 42;
#X obj 300 142 count 8;
#X msg 74 303 40;
#X obj 123 280 sel 0;
#X obj 123 260 mod 4;
#X obj 74 240 + 2;
#X obj 74 261 mod 4;
#X obj 300 96 metro 250;
#X obj 512 466 noteout 3;
#X obj 300 241 sel 0;
#X obj 412 247 random 6;
#X obj 300 353 - 12;
#X msg 427 344 36;
#X obj 300 374 +;
#X obj 300 293 +;
#X obj 377 97 bng 15 250 50 0 empty empty empty 17 7 0 10 -262144 -1
-1;
#X obj 512 302 list-nth;
#X obj 574 248 mod 4;
#X obj 512 327 +;
#X obj 512 393 +;
#X obj 412 225 sel 0;
#X obj 300 260 delay 1;
#X obj 512 414 + 12;
#X msg 512 278 0 2 6 4;
#X obj 574 228 +;
#X obj 589 203 hradio 15 1 0 8 empty empty empty 0 -8 0 10 -262144
-1 -1 1;
#X obj 300 221 mod 2;
#X obj 589 156 loadbang;
#X msg 589 178 7;
#X obj 479 60 loadbang;
#X msg 479 85 symbol major;
#X obj 479 110 s \$0-scale;
#X msg 567 85 symbol bartok;
#X msg 659 85 symbol halfdim;
#X msg 755 85 symbol octatonic;
#X obj 545 341 r \$0-scale;
#X obj 333 309 r \$0-scale;
#X obj 512 362 scales;
#X obj 300 329 scales;
#X obj 300 425 noteout 4;
#X obj 74 365 makenote 100 500;
#X obj 512 438 makenote 100 500;
#X obj 300 395 makenote 100 500;
#X connect 0 0 6 0;
#X connect 1 0 11 0;
#X connect 3 0 44 0;
#X connect 4 0 44 0;
#X connect 5 0 4 0;
#X connect 5 0 9 0;
#X connect 5 0 8 0;
#X connect 5 0 24 0;
#X connect 5 0 28 0;
#X connect 5 0 30 0;
#X connect 6 0 44 0;
#X connect 7 0 3 0;
#X connect 8 0 7 0;
#X connect 9 0 10 0;
#X connect 10 0 0 0;
#X connect 11 0 5 0;
#X connect 13 0 25 0;
#X connect 14 0 18 1;
#X connect 14 0 22 1;
#X connect 15 0 17 0;
#X connect 16 0 17 1;
#X connect 16 0 23 1;
#X connect 17 0 46 0;
#X connect 18 0 42 0;
#X connect 19 0 5 0;
#X connect 20 0 22 0;
#X connect 21 0 20 1;
#X connect 21 0 27 0;
#X connect 22 0 41 0;
#X connect 23 0 26 0;
#X connect 24 0 14 0;
#X connect 25 0 18 0;
#X connect 26 0 45 0;
#X connect 27 0 20 0;
#X connect 28 0 21 0;
#X connect 29 0 28 1;
#X connect 30 0 13 0;
#X connect 31 0 32 0;
#X connect 32 0 29 0;
#X connect 33 0 34 0;
#X connect 34 0 35 0;
#X connect 36 0 35 0;
#X connect 37 0 35 0;
#X connect 38 0 35 0;
#X connect 39 0 41 1;
#X connect 40 0 42 1;
#X connect 41 0 23 0;
#X connect 42 0 15 0;
#X connect 44 0 2 0;
#X connect 44 1 2 1;
#X connect 45 0 12 0;
#X connect 45 1 12 1;
#X connect 46 0 43 0;
#X connect 46 1 43 1;
