#N canvas 0 42 1920 1015 10;
#X obj 148 4 loadbang;
#X obj 148 26 bng 15 250 50 0 empty empty empty 17 7 0 10 -262144 -1
-1;
#X obj 87 79 metropolis;
#X obj 85 245 dev/drumbrute;
#X msg 87 60 4;
#X msg 148 60 112;
#X obj 143 197 mod 2;
#X obj 143 217 sel 1;
#X obj 210 199 sel 0;
#X obj 210 178 mod 12;
#X obj 77 195 mod 4;
#X obj 77 214 sel 0 3;
#X connect 0 0 1 0;
#X connect 1 0 4 0;
#X connect 1 0 5 0;
#X connect 1 0 2 2;
#X connect 2 0 6 0;
#X connect 2 1 10 0;
#X connect 2 3 9 0;
#X connect 4 0 2 0;
#X connect 5 0 2 1;
#X connect 6 0 7 0;
#X connect 7 0 3 3;
#X connect 8 0 3 7;
#X connect 8 1 3 6;
#X connect 9 0 8 0;
#X connect 10 0 11 0;
#X connect 11 0 3 1;
#X connect 11 1 3 1;
