#N canvas 0 42 1920 1015 10;
#X obj 208 74 tgl 15 0 empty empty empty 17 7 0 10 -262144 -1 -1 1
1;
#X obj 154 -16 loadbang;
#X floatatom 259 72 5 0 0 0 - - -, f 5;
#X obj 154 6 bng 15 250 50 0 empty empty empty 17 7 0 10 -262144 -1
-1;
#X obj 286 242 sel 0;
#X obj 248 242 sel 0;
#X obj 286 201 + 2;
#X obj 248 222 mod 3;
#X obj 208 111 count 8;
#X obj 286 222 mod 4;
#X obj 422 242 sel 0;
#X obj 422 201 + 2;
#X obj 422 222 mod 3;
#X obj 325 203 + 1;
#X obj 325 242 sel 0 2;
#X obj 325 222 mod 5;
#X msg 259 51 200;
#X obj 208 91 metro 200;
#X obj 16 196 list-nth;
#X obj 189 152 mod 8;
#X floatatom 189 171 5 0 0 0 - - -, f 5;
#X obj 35 136 +;
#X obj 50 112 hradio 15 0 0 8 empty empty degree 0 -8 0 10 -262144
-1 -1 7;
#X obj 111 233 random 6;
#X obj 111 214 sel 0;
#X obj 96 253 + 0;
#X obj 35 157 mod 9;
#X msg 16 177 0 1 0 6 4 4 5 5;
#X obj 96 273 scale/halfdim;
#X obj 480 218 mod 9;
#X obj 480 198 count 15;
#X obj 497 261 bng 15 250 50 0 empty empty empty 17 7 0 10 -262144
-1 -1;
#X obj 480 238 sel 0 3 6;
#X msg 50 83 7;
#X obj 248 294 dev/drumbrute;
#X obj 96 294 dev/ms20;
#X connect 0 0 17 0;
#X connect 1 0 3 0;
#X connect 2 0 17 1;
#X connect 3 0 16 0;
#X connect 3 0 0 0;
#X connect 3 0 33 0;
#X connect 4 0 34 2;
#X connect 5 0 34 1;
#X connect 6 0 9 0;
#X connect 7 0 5 0;
#X connect 8 0 6 0;
#X connect 8 0 11 0;
#X connect 8 0 13 0;
#X connect 8 0 19 0;
#X connect 8 0 21 0;
#X connect 8 0 7 0;
#X connect 9 0 4 0;
#X connect 10 0 34 9;
#X connect 11 0 12 0;
#X connect 12 0 10 0;
#X connect 13 0 15 0;
#X connect 14 2 34 6;
#X connect 15 0 14 0;
#X connect 16 0 2 0;
#X connect 17 0 8 0;
#X connect 17 0 30 0;
#X connect 18 0 25 0;
#X connect 19 0 20 0;
#X connect 20 0 24 0;
#X connect 21 0 26 0;
#X connect 22 0 21 1;
#X connect 23 0 25 1;
#X connect 24 0 23 0;
#X connect 25 0 28 0;
#X connect 26 0 18 1;
#X connect 26 0 27 0;
#X connect 27 0 18 0;
#X connect 28 0 35 0;
#X connect 29 0 32 0;
#X connect 30 0 29 0;
#X connect 31 0 34 14;
#X connect 32 0 31 0;
#X connect 32 1 31 0;
#X connect 32 2 31 0;
#X connect 32 3 34 15;
#X connect 33 0 22 0;
