#N canvas 0 42 1920 1015 10;
#X obj 154 -16 loadbang;
#X obj 154 6 bng 15 250 50 0 empty empty empty 17 7 0 10 -262144 -1
-1;
#X obj 286 201 + 2;
#X obj 248 222 mod 3;
#X obj 286 222 mod 4;
#X obj 422 201 + 2;
#X obj 422 222 mod 3;
#X obj 325 203 + 1;
#X obj 325 222 mod 5;
#X obj 29 225 list-nth;
#X obj 48 165 +;
#X obj 63 121 hradio 15 0 0 8 empty empty degree 0 -8 0 10 -262144
-1 -1 0;
#X obj 116 253 + 0;
#X msg 29 206 0 1 0 6 4 4 5 5;
#X obj 487 218 mod 9;
#X obj 487 198 count 15;
#X obj 504 263 bng 15 250 50 0 empty empty empty 17 7 0 10 -262144
-1 -1;
#X obj 248 294 dev/drumbrute;
#X obj 116 294 dev/ms20;
#X obj 218 41 metropolis;
#X msg 279 21 160;
#X obj 116 273 scale/octatonic;
#X obj 48 186 mod 9;
#X obj 131 233 random 7;
#X msg 63 42 3;
#X msg 218 21 7;
#X obj 131 174 sel 0;
#X obj 248 242 sel 0;
#X obj 286 242 sel 0;
#X obj 325 242 sel 0 2;
#X obj 422 242 sel 0;
#X obj 487 238 sel 0 3 6;
#X obj 106 92 random 7;
#X obj 106 72 sel 0;
#X obj 106 53 count 8;
#X connect 0 0 1 0;
#X connect 1 0 24 0;
#X connect 1 0 25 0;
#X connect 1 0 20 0;
#X connect 1 0 19 2;
#X connect 2 0 4 0;
#X connect 3 0 27 0;
#X connect 4 0 28 0;
#X connect 5 0 6 0;
#X connect 6 0 30 0;
#X connect 7 0 8 0;
#X connect 8 0 29 0;
#X connect 9 0 12 0;
#X connect 10 0 22 0;
#X connect 11 0 10 1;
#X connect 12 0 21 0;
#X connect 13 0 9 0;
#X connect 14 0 31 0;
#X connect 15 0 14 0;
#X connect 16 0 17 14;
#X connect 19 0 26 0;
#X connect 19 1 15 0;
#X connect 19 1 5 0;
#X connect 19 1 7 0;
#X connect 19 1 2 0;
#X connect 19 1 3 0;
#X connect 19 1 10 0;
#X connect 20 0 19 1;
#X connect 21 0 18 0;
#X connect 22 0 9 1;
#X connect 22 0 13 0;
#X connect 23 0 12 1;
#X connect 24 0 11 0;
#X connect 25 0 19 0;
#X connect 26 0 23 0;
#X connect 26 0 34 0;
#X connect 27 0 17 1;
#X connect 28 0 17 2;
#X connect 29 2 17 6;
#X connect 30 0 17 9;
#X connect 31 0 16 0;
#X connect 31 1 16 0;
#X connect 31 2 16 0;
#X connect 31 3 17 15;
#X connect 32 0 11 0;
#X connect 33 0 32 0;
#X connect 34 0 33 0;
