#N canvas 770 45 1788 1370 10;
#X obj 121 196 tgl 15 0 empty empty empty 17 7 0 10 -4945 -104353 -1
1 1;
#X obj 348 617 noteout 1;
#X obj 348 456 list-nth;
#X obj 348 481 +;
#X obj 348 567 +;
#X obj 348 350 +;
#X obj 363 325 hradio 15 0 0 8 empty empty empty 0 -8 0 10 -4945 -137601
-112337 0;
#X obj 363 528 loadbang;
#X obj 121 303 sel 0;
#X obj 121 236 bng 15 250 10 0 empty empty empty 17 7 0 10 -4945 -91870
-1;
#X msg 363 547 42;
#X obj 441 554 hsl 128 15 10 250 0 0 empty empty empty -2 -8 0 10 -4945
-213857 -1 2117 1;
#X floatatom 441 572 5 0 0 0 - - -, f 5;
#X obj 121 213 metro 500;
#X obj 178 357 delay 501;
#X floatatom 172 187 5 0 0 0 - - -, f 5;
#X msg 172 138 250;
#X obj 172 168 hsl 128 15 40 1000 1 0 empty empty empty -2 -8 0 10
-4945 -39093 -1 3615 1;
#X obj 229 337 + 1;
#X obj 121 339 bng 15 250 50 0 empty empty empty 17 7 0 10 -4945 -91870
-1;
#X obj 348 591 makenote 110 230;
#X msg 348 422 5 6 1 7 2 9 11 15 2 7 11 9 4 5 1 3;
#X floatatom 348 402 5 0 0 0 - - -, f 5;
#X obj 407 398 hsl 128 8 0.1 32 1 0 empty empty empty -2 -8 0 10 -4945
-226060 -1 6596 1;
#X msg 144 138 100;
#X obj 417 406 hsl 128 8 0.1 32 1 0 empty empty empty -2 -8 0 10 -4945
-205958 -1 6596 1;
#X obj 427 414 hsl 128 8 0.1 32 1 0 empty empty empty -2 -8 0 10 -4945
-186497 -1 6596 1;
#X obj 326 501 vsl 15 128 44 76 0 0 empty empty empty 0 -9 0 10 -4945
-112434 -1 397 1;
#X obj 121 270 count 25;
#X floatatom 312 148 5 0 0 0 - - -, f 5;
#X msg 312 129 16;
#X obj 312 223 +;
#X floatatom 312 244 5 0 0 0 - - -, f 5;
#X obj 312 167 t f b;
#X obj 327 202 random 12;
#X obj 312 108 loadbang;
#X obj 348 504 scale/octatonic;
#X obj 121 357 random 7;
#X obj 348 372 mod 16;
#X obj 441 534 * 0.5;
#X obj 363 305 random 8;
#X obj 363 287 bng 15 250 10 0 empty empty empty 17 7 0 10 -4945 -91870
-1;
#X obj 363 246 count 4;
#X obj 363 267 sel 0;
#X connect 0 0 13 0;
#X connect 2 0 3 0;
#X connect 3 0 36 0;
#X connect 4 0 20 0;
#X connect 5 0 38 0;
#X connect 6 0 5 1;
#X connect 7 0 10 0;
#X connect 8 0 14 0;
#X connect 8 0 19 0;
#X connect 8 0 42 0;
#X connect 9 0 28 0;
#X connect 10 0 4 1;
#X connect 11 0 12 0;
#X connect 12 0 20 2;
#X connect 13 0 9 0;
#X connect 14 0 36 0;
#X connect 15 0 13 1;
#X connect 15 0 18 0;
#X connect 15 0 39 0;
#X connect 16 0 17 0;
#X connect 17 0 15 0;
#X connect 18 0 14 1;
#X connect 19 0 37 0;
#X connect 20 0 1 0;
#X connect 20 0 27 0;
#X connect 20 1 1 1;
#X connect 21 0 2 0;
#X connect 22 0 21 0;
#X connect 24 0 17 0;
#X connect 28 0 5 0;
#X connect 28 0 8 0;
#X connect 29 0 33 0;
#X connect 29 0 38 1;
#X connect 30 0 29 0;
#X connect 31 0 32 0;
#X connect 32 0 28 1;
#X connect 33 0 31 0;
#X connect 33 1 34 0;
#X connect 34 0 31 1;
#X connect 35 0 30 0;
#X connect 36 0 4 0;
#X connect 37 0 3 1;
#X connect 38 0 2 1;
#X connect 38 0 22 0;
#X connect 38 0 23 0;
#X connect 38 0 25 0;
#X connect 38 0 26 0;
#X connect 39 0 11 0;
#X connect 40 0 6 0;
#X connect 41 0 40 0;
#X connect 42 0 43 0;
#X connect 43 0 41 0;
