#N canvas 1 41 958 1135 10;
#X obj 15 24 tgl 15 0 empty empty empty 17 7 0 10 -262144 -1 -1 1 1
;
#X obj 15 81 metro 1000;
#X obj 154 -16 loadbang;
#X floatatom 80 56 5 0 0 0 - - -, f 5;
#X obj 147 248 r \$0-n1;
#X obj 227 248 r \$0-m;
#X obj 315 226 r \$0-m;
#X obj 366 203 r \$0-t;
#X obj 455 224 r \$0-m;
#X obj 506 201 r \$0-t;
#X obj 275 205 r \$0-n2;
#X obj 415 204 r \$0-n3;
#X obj 455 246 delay 600;
#X obj 315 248 delay 300;
#X obj 366 226 / 3;
#X obj 506 223 / 1.5;
#X obj 197 96 s \$0-n1;
#X obj 316 97 s \$0-n2;
#X obj 436 97 s \$0-n3;
#X obj 15 103 s \$0-m;
#X obj 93 103 s \$0-t;
#X obj 154 6 bng 15 250 50 0 empty empty empty 17 7 0 10 -262144 -1
-1;
#X msg 80 35 900;
#X obj 316 31 bng 15 250 50 0 empty empty empty 17 7 0 10 -262144 -1
-1;
#X obj 316 -14 tgl 15 0 empty empty empty 17 7 0 10 -262144 -1 -1 0
1;
#X obj 316 6 metro 30000;
#X obj 147 268 1of3;
#X obj 275 269 1of3;
#X obj 415 268 1of3;
#X obj 316 56 bng 15 250 50 0 empty empty empty 17 7 0 10 -262144 -1
-1;
#X obj 436 56 bng 15 250 50 0 empty empty empty 17 7 0 10 -262144 -1
-1;
#X obj 197 56 bng 15 250 50 0 empty empty empty 17 7 0 10 -262144 -1
-1;
#X obj 147 359 midinote;
#X obj 169 316 r \$0-t;
#X obj 23 173 hradio 15 0 0 17 empty empty empty 0 -8 0 10 -262144
-1 -1 5;
#X obj 23 213 s \$0-ch;
#X obj 192 337 r \$0-ch;
#X obj 275 359 midinote;
#X obj 297 316 r \$0-t;
#X obj 320 337 r \$0-ch;
#X obj 415 359 midinote;
#X obj 437 316 r \$0-t;
#X obj 460 337 r \$0-ch;
#X floatatom 23 193 5 0 0 0 - - -, f 5;
#X msg 23 150 6;
#X obj 316 74 3randomS 52 bartok;
#X obj 197 74 3randomS 40 bartok;
#X obj 436 74 3randomS 52 bartok;
#X connect 0 0 1 0;
#X connect 1 0 19 0;
#X connect 2 0 21 0;
#X connect 3 0 1 1;
#X connect 3 0 20 0;
#X connect 4 0 26 0;
#X connect 5 0 26 1;
#X connect 6 0 13 0;
#X connect 7 0 14 0;
#X connect 8 0 12 0;
#X connect 9 0 15 0;
#X connect 10 0 27 0;
#X connect 11 0 28 0;
#X connect 12 0 28 1;
#X connect 13 0 27 1;
#X connect 14 0 13 1;
#X connect 15 0 12 1;
#X connect 21 0 22 0;
#X connect 21 0 0 0;
#X connect 21 0 44 0;
#X connect 22 0 3 0;
#X connect 23 0 29 0;
#X connect 23 0 30 0;
#X connect 23 0 31 0;
#X connect 24 0 25 0;
#X connect 25 0 23 0;
#X connect 26 0 32 0;
#X connect 27 0 37 0;
#X connect 28 0 40 0;
#X connect 29 0 45 0;
#X connect 30 0 47 0;
#X connect 31 0 46 0;
#X connect 33 0 32 1;
#X connect 34 0 43 0;
#X connect 36 0 32 2;
#X connect 38 0 37 1;
#X connect 39 0 37 2;
#X connect 41 0 40 1;
#X connect 42 0 40 2;
#X connect 43 0 35 0;
#X connect 44 0 34 0;
#X connect 45 0 17 0;
#X connect 46 0 16 0;
#X connect 47 0 18 0;
