#N canvas 1 41 958 1135 10;
#X obj 217 164 inlet;
#X msg 286 164 0 2 4 6 7 9 10;
#X obj 286 135 loadbang;
#X obj 217 205 outlet;
#X obj 217 185 7-note-scale;
#X obj 343 135 inlet;
#X connect 0 0 4 0;
#X connect 1 0 4 1;
#X connect 2 0 1 0;
#X connect 4 0 3 0;
#X connect 5 0 1 0;
