#N canvas 0 42 2560 1375 10;
#X obj 536 257 + 44;
#X obj 568 257 + 49;
#X obj 600 257 + 54;
#X obj 632 257 + 59;
#X obj 664 257 + 63;
#X obj 696 257 + 68;
#X obj 602 201 unpack f f f f f f;
#X obj 464 11 chord6gram;
#X obj 464 201 unpack f f f f f f;
#X obj 631 -21 bng 15 250 50 0 empty empty empty 17 7 0 10 -262144
-1 -1;
#X obj 774 94 vradio 15 0 0 12 empty empty empty 0 -8 0 10 -262144
-1 -1 1;
#X msg 625 155 list 38 45 52 57 61 64;
#X obj 942 509 noteout 1;
#X msg 614 124 list 44 49 54 59 63 68;
#X obj 631 -41 metro 600;
#X obj 631 -60 tgl 15 0 empty empty empty 17 7 0 10 -262144 -1 -1 1
1;
#X floatatom 1039 455 5 0 0 0 - - -, f 5;
#X obj 1039 437 hradio 15 0 0 17 empty empty MIDI\ Channel 184 -8 0
10 -262144 -1 -1 12;
#X obj 1039 392 loadbang;
#X msg 1039 411 1;
#X msg 1066 411 10;
#X msg 1093 411 11;
#X obj 774 30 count 8;
#X obj 774 50 sel 0;
#X obj 774 70 random 12;
#X obj 910 333 unpack f f f f f f;
#X obj 910 186 loadbang;
#X msg 910 216 list 0 1 2 3 4 5;
#X msg 920 237 list 1 0 2 4 3 4;
#X msg 930 257 list 0 2 1 4 3 5;
#X obj 682 -150 loadbang;
#X msg 682 -131 100;
#X obj 682 -66 * 6;
#X obj 709 -29 s \$0-dly;
#X obj 501 427 r \$0-dly;
#X floatatom 682 -91 5 0 0 0 - - -, f 5;
#X obj 386 427 r \$0-dly;
#X msg 711 -131 200;
#N canvas 0 42 2560 1375 midiNote 0;
#X obj 338 81 inlet;
#X obj 374 81 inlet;
#X obj 341 203 makenote 100 500;
#X obj 341 183 pipe 0;
#X obj 421 81 inlet;
#X obj 341 222 outlet;
#X obj 434 222 outlet;
#X obj 381 117 t b f;
#X obj 381 141 delay 1;
#X obj 374 162 *;
#X obj 434 184 * 5;
#X connect 0 0 3 0;
#X connect 1 0 9 0;
#X connect 2 0 5 0;
#X connect 2 1 6 0;
#X connect 3 0 2 0;
#X connect 4 0 7 0;
#X connect 4 0 10 0;
#X connect 7 0 8 0;
#X connect 7 1 9 1;
#X connect 8 0 9 0;
#X connect 9 0 3 1;
#X connect 10 0 2 2;
#X restore 323 447 pd midiNote;
#N canvas 0 42 2560 1375 midiNote 0;
#X obj 338 121 inlet;
#X obj 374 121 inlet;
#X obj 341 243 makenote 100 500;
#X obj 341 223 pipe 0;
#X obj 374 202 * 100;
#X obj 421 121 inlet;
#X obj 341 262 outlet;
#X obj 434 262 outlet;
#X obj 381 157 t b f;
#X obj 381 181 delay 1;
#X connect 0 0 3 0;
#X connect 1 0 4 0;
#X connect 2 0 6 0;
#X connect 2 1 7 0;
#X connect 3 0 2 0;
#X connect 4 0 3 1;
#X connect 5 0 8 0;
#X connect 8 0 9 0;
#X connect 8 1 4 1;
#X connect 9 0 4 0;
#X restore 438 450 pd midiNote;
#X obj 735 430 r \$0-dly;
#X obj 620 430 r \$0-dly;
#N canvas 0 42 2560 1375 midiNote 0;
#X obj 338 121 inlet;
#X obj 374 121 inlet;
#X obj 341 243 makenote 100 500;
#X obj 341 223 pipe 0;
#X obj 374 202 * 100;
#X obj 421 121 inlet;
#X obj 341 262 outlet;
#X obj 434 262 outlet;
#X obj 381 157 t b f;
#X obj 381 181 delay 1;
#X connect 0 0 3 0;
#X connect 1 0 4 0;
#X connect 2 0 6 0;
#X connect 2 1 7 0;
#X connect 3 0 2 0;
#X connect 4 0 3 1;
#X connect 5 0 8 0;
#X connect 8 0 9 0;
#X connect 8 1 4 1;
#X connect 9 0 4 0;
#X restore 557 450 pd midiNote;
#N canvas 0 42 2560 1375 midiNote 0;
#X obj 338 121 inlet;
#X obj 374 121 inlet;
#X obj 341 243 makenote 100 500;
#X obj 341 223 pipe 0;
#X obj 374 202 * 100;
#X obj 421 121 inlet;
#X obj 341 262 outlet;
#X obj 434 262 outlet;
#X obj 381 157 t b f;
#X obj 381 181 delay 1;
#X connect 0 0 3 0;
#X connect 1 0 4 0;
#X connect 2 0 6 0;
#X connect 2 1 7 0;
#X connect 3 0 2 0;
#X connect 4 0 3 1;
#X connect 5 0 8 0;
#X connect 8 0 9 0;
#X connect 8 1 4 1;
#X connect 9 0 4 0;
#X restore 672 453 pd midiNote;
#X obj 975 433 r \$0-dly;
#X obj 860 433 r \$0-dly;
#N canvas 0 42 2560 1375 midiNote 0;
#X obj 338 121 inlet;
#X obj 374 121 inlet;
#X obj 341 243 makenote 100 500;
#X obj 341 223 pipe 0;
#X obj 374 202 * 100;
#X obj 421 121 inlet;
#X obj 341 262 outlet;
#X obj 434 262 outlet;
#X obj 381 157 t b f;
#X obj 381 181 delay 1;
#X connect 0 0 3 0;
#X connect 1 0 4 0;
#X connect 2 0 6 0;
#X connect 2 1 7 0;
#X connect 3 0 2 0;
#X connect 4 0 3 1;
#X connect 5 0 8 0;
#X connect 8 0 9 0;
#X connect 8 1 4 1;
#X connect 9 0 4 0;
#X restore 797 453 pd midiNote;
#N canvas 0 42 2560 1375 midiNote 0;
#X obj 338 121 inlet;
#X obj 374 121 inlet;
#X obj 341 243 makenote 100 500;
#X obj 341 223 pipe 0;
#X obj 374 202 * 100;
#X obj 421 121 inlet;
#X obj 341 262 outlet;
#X obj 434 262 outlet;
#X obj 381 157 t b f;
#X obj 381 181 delay 1;
#X connect 0 0 3 0;
#X connect 1 0 4 0;
#X connect 2 0 6 0;
#X connect 2 1 7 0;
#X connect 3 0 2 0;
#X connect 4 0 3 1;
#X connect 5 0 8 0;
#X connect 8 0 9 0;
#X connect 8 1 4 1;
#X connect 9 0 4 0;
#X restore 912 456 pd midiNote;
#X obj 664 344 spigot;
#X obj 696 364 spigot;
#X obj 729 320 tgl 15 0 empty empty Dehble\ Trehble 17 5 0 10 -262144
-1 -1 0 1;
#X msg 513 -54 4;
#X msg 541 -54 6;
#X msg 569 -54 8;
#X msg 597 -54 12;
#X floatatom 556 -27 5 0 0 0 - - -, f 5;
#X msg 485 -54 3;
#X obj 536 302 + 0;
#X obj 568 302 + 0;
#X obj 600 302 + 0;
#X obj 632 302 + 0;
#X obj 664 302 + 0;
#X obj 696 302 + 0;
#X msg 825 50 0;
#X msg 940 276 list 0 0.5 2 3 4.5 4.5;
#X msg 855 50 12;
#X msg 950 296 list 1.5 0 2 4 3 5;
#X text 497 -76 Alea: Fret Range;
#X text 910 165 Arpeggio Timings;
#X text 774 7 Alea: Offset Every 2 Measures;
#X obj 682 -109 hsl 128 15 50 400 0 0 empty empty Tempo 106 -8 0 10
-262144 -1 -1 4543 1;
#X text 614 101 Instrument Tuning;
#X obj 834 -87 sin;
#X floatatom 834 -45 5 0 0 0 - - -, f 5;
#X obj 834 -150 metro 100;
#X obj 834 -168 tgl 15 0 empty empty empty 17 7 0 10 -262144 -1 -1
1 1;
#X obj 834 -131 f;
#X obj 834 -110 + 0.1;
#X obj 834 -65 * 2;
#X obj 709 -66 + 0;
#X obj 834 -26 t b f;
#X floatatom 709 -47 5 0 0 0 - - -, f 5;
#X text 871 -46 Alea: Delay Modulation;
#X floatatom 891 -87 5 0 0 0 - - -, f 5;
#X obj 891 -105 hsl 128 15 0.2 20 1 0 empty empty empty -2 -8 0 10
-262144 -1 -1 1118 1;
#X msg 919 -127 2;
#X msg 973 -127 10;
#X msg 1001 -127 20;
#X msg 946 -127 5;
#X msg 891 -127 0.3;
#X connect 0 0 57 0;
#X connect 1 0 58 0;
#X connect 2 0 59 0;
#X connect 3 0 60 0;
#X connect 4 0 61 0;
#X connect 5 0 62 0;
#X connect 6 0 0 1;
#X connect 6 1 1 1;
#X connect 6 2 2 1;
#X connect 6 3 3 1;
#X connect 6 4 4 1;
#X connect 6 5 5 1;
#X connect 7 0 8 0;
#X connect 8 0 0 0;
#X connect 8 1 1 0;
#X connect 8 2 2 0;
#X connect 8 3 3 0;
#X connect 8 4 4 0;
#X connect 8 5 5 0;
#X connect 9 0 7 0;
#X connect 9 0 22 0;
#X connect 10 0 58 1;
#X connect 10 0 59 1;
#X connect 10 0 60 1;
#X connect 10 0 61 1;
#X connect 10 0 62 1;
#X connect 10 0 57 1;
#X connect 11 0 6 0;
#X connect 13 0 6 0;
#X connect 14 0 9 0;
#X connect 15 0 14 0;
#X connect 16 0 12 2;
#X connect 17 0 16 0;
#X connect 18 0 19 0;
#X connect 19 0 17 0;
#X connect 20 0 17 0;
#X connect 21 0 17 0;
#X connect 22 0 23 0;
#X connect 23 0 24 0;
#X connect 24 0 10 0;
#X connect 25 0 38 1;
#X connect 25 1 39 1;
#X connect 25 2 42 1;
#X connect 25 3 43 1;
#X connect 25 4 46 1;
#X connect 25 5 47 1;
#X connect 26 0 27 0;
#X connect 26 0 50 0;
#X connect 27 0 25 0;
#X connect 28 0 25 0;
#X connect 29 0 25 0;
#X connect 30 0 31 0;
#X connect 31 0 70 0;
#X connect 32 0 14 1;
#X connect 34 0 39 2;
#X connect 35 0 32 0;
#X connect 35 0 79 0;
#X connect 35 0 74 1;
#X connect 36 0 38 2;
#X connect 37 0 70 0;
#X connect 38 0 12 0;
#X connect 38 1 12 1;
#X connect 39 0 12 0;
#X connect 39 1 12 1;
#X connect 40 0 43 2;
#X connect 41 0 42 2;
#X connect 42 0 12 0;
#X connect 42 1 12 1;
#X connect 43 0 12 0;
#X connect 43 1 12 1;
#X connect 44 0 47 2;
#X connect 45 0 46 2;
#X connect 46 0 12 0;
#X connect 46 1 12 1;
#X connect 47 0 12 0;
#X connect 47 1 12 1;
#X connect 48 0 46 0;
#X connect 49 0 47 0;
#X connect 50 0 48 1;
#X connect 50 0 49 1;
#X connect 51 0 55 0;
#X connect 52 0 55 0;
#X connect 53 0 55 0;
#X connect 54 0 55 0;
#X connect 55 0 7 1;
#X connect 56 0 55 0;
#X connect 57 0 38 0;
#X connect 58 0 39 0;
#X connect 59 0 42 0;
#X connect 60 0 43 0;
#X connect 61 0 48 0;
#X connect 62 0 49 0;
#X connect 63 0 24 1;
#X connect 64 0 25 0;
#X connect 65 0 24 1;
#X connect 66 0 25 0;
#X connect 70 0 35 0;
#X connect 72 0 78 0;
#X connect 73 0 80 0;
#X connect 74 0 76 0;
#X connect 75 0 74 0;
#X connect 76 0 77 0;
#X connect 77 0 76 1;
#X connect 77 0 72 0;
#X connect 78 0 73 0;
#X connect 79 0 81 0;
#X connect 80 0 79 0;
#X connect 80 1 79 1;
#X connect 81 0 33 0;
#X connect 83 0 78 1;
#X connect 84 0 83 0;
#X connect 85 0 84 0;
#X connect 86 0 84 0;
#X connect 87 0 84 0;
#X connect 88 0 84 0;
#X connect 89 0 84 0;
