#N canvas 0 42 2560 1375 10;
#X obj 829 340 vradio 15 0 0 4 empty \$0-radio empty 0 -8 0 10 -262144
-1 -1 0;
#X obj 849 340 vradio 15 0 0 4 empty \$0-radio empty 0 -8 0 10 -262144
-1 -1 0;
#X obj 869 340 vradio 15 0 0 4 empty \$0-radio empty 0 -8 0 10 -262144
-1 -1 0;
#X obj 889 340 vradio 15 0 0 4 empty \$0-radio empty 0 -8 0 10 -262144
-1 -1 0;
#X obj 909 340 vradio 15 0 0 4 empty \$0-radio empty 0 -8 0 10 -262144
-1 -1 0;
#X obj 929 340 vradio 15 0 0 4 empty \$0-radio empty 0 -8 0 10 -262144
-1 -1 0;
#X obj 709 277 random 4;
#X obj 801 221 bng 15 250 50 0 empty empty empty 17 7 0 10 -262144
-1 -1;
#X obj 769 277 random 4;
#X obj 829 277 random 4;
#X obj 889 277 random 4;
#X obj 949 277 random 4;
#X obj 1009 277 random 4;
#X floatatom 883 220 5 0 0 0 - - -, f 5;
#X obj 834 520 pack f f f f f f;
#X obj 834 545 outlet;
#X obj 801 201 inlet;
#X msg 927 202 number \$1;
#X obj 927 223 s \$0-radio;
#X obj 883 173 hradio 15 0 0 12 empty empty empty 0 -8 0 10 -262144
-1 -1 4;
#X obj 883 132 loadbang;
#X msg 883 153 4;
#X obj 940 132 inlet;
#X connect 0 0 14 0;
#X connect 1 0 14 1;
#X connect 2 0 14 2;
#X connect 3 0 14 3;
#X connect 4 0 14 4;
#X connect 5 0 14 5;
#X connect 6 0 0 0;
#X connect 7 0 6 0;
#X connect 7 0 8 0;
#X connect 7 0 12 0;
#X connect 7 0 11 0;
#X connect 7 0 10 0;
#X connect 7 0 9 0;
#X connect 8 0 1 0;
#X connect 9 0 2 0;
#X connect 10 0 3 0;
#X connect 11 0 4 0;
#X connect 12 0 5 0;
#X connect 13 0 10 1;
#X connect 13 0 12 1;
#X connect 13 0 11 1;
#X connect 13 0 9 1;
#X connect 13 0 8 1;
#X connect 13 0 6 1;
#X connect 14 0 15 0;
#X connect 16 0 7 0;
#X connect 17 0 18 0;
#X connect 19 0 17 0;
#X connect 19 0 13 0;
#X connect 20 0 21 0;
#X connect 21 0 19 0;
#X connect 22 0 19 0;
#X coords 0 -1 1 1 124 187 1 825 324;
