#N canvas 0 42 2560 1375 10;
#X obj 390 173 metropolis;
#X floatatom 390 284 5 0 0 0 - - -, f 5;
#X obj 390 302 bng 15 250 50 0 empty empty empty 17 7 0 10 -262144
-1 -1;
#X floatatom 431 284 5 0 0 0 - - -, f 5;
#X obj 431 302 bng 15 250 50 0 empty empty empty 17 7 0 10 -262144
-1 -1;
#X floatatom 472 284 5 0 0 0 - - -, f 5;
#X obj 472 302 bng 15 250 50 0 empty empty empty 17 7 0 10 -262144
-1 -1;
#X floatatom 513 284 5 0 0 0 - - -, f 5;
#X obj 513 302 bng 15 250 50 0 empty empty empty 17 7 0 10 -262144
-1 -1;
#X obj 451 100 loadbang;
#X msg 390 153 4;
#X msg 451 153 60;
#X obj 451 119 bng 15 250 50 0 empty empty empty 17 7 0 10 -262144
-1 -1;
#X connect 0 0 1 0;
#X connect 0 1 3 0;
#X connect 0 2 5 0;
#X connect 0 3 7 0;
#X connect 1 0 2 0;
#X connect 3 0 4 0;
#X connect 5 0 6 0;
#X connect 7 0 8 0;
#X connect 9 0 12 0;
#X connect 10 0 0 0;
#X connect 11 0 0 1;
#X connect 12 0 11 0;
#X connect 12 0 10 0;
#X connect 12 0 0 2;
