#N canvas 0 42 1920 1015 10;
#X obj 440 28 cnv 15 128 74 empty empty empty 20 12 0 14 -228011 -66577
0;
#X obj 547 42 tgl 15 0 empty empty on 0 -10 0 10 -199729 -1 -1 0 1
;
#X obj 445 69 hradio 15 0 0 4 empty \$0-beatradio empty 0 -8 0 10 -199729
-248341 -1 0;
#X floatatom 444 42 5 3 8 2 beats - -, f 5;
#X obj 486 114 expr 60000 / $f1;
#X obj 347 100 s \$0-beatradio;
#X msg 347 80 number \$1;
#X floatatom 486 42 5 50 220 2 tempo - -, f 5;
#X obj 547 -11 inlet;
#X obj 226 399 outlet;
#X obj 135 399 s \$0-beatradio;
#X floatatom 226 380 5 0 0 0 - - -, f 5;
#X obj 359 399 outlet;
#X floatatom 359 380 5 0 0 0 - - -, f 5;
#X obj 593 63 s \$0-on;
#X obj 369 33 s \$0-nbeat;
#X obj 289 280 r \$0-nbeat;
#X obj 422 300 * 2;
#X obj 422 280 r \$0-nbeat;
#X floatatom 486 194 5 0 0 0 - - -, f 5;
#X obj 638 399 outlet;
#X floatatom 638 380 5 0 0 0 - - -, f 5;
#X obj 707 280 r \$0-nbeat;
#X obj 707 300 * 4;
#X obj 499 399 outlet;
#X floatatom 499 380 5 0 0 0 - - -, f 5;
#X obj 275 48 t b;
#X obj 275 67 s \$0-reset;
#X text 439 87 /4;
#X text 479 87 /8;
#X text 512 87 /12;
#X text 547 87 /16;
#X obj 444 -11 inlet;
#X obj 486 -11 inlet;
#X obj 486 169 / 12;
#X floatatom 486 139 5 0 0 0 - - -, f 5;
#X obj 435 213 metro 100;
#X obj 435 193 r \$0-on;
#X msg 437 -36 4;
#X msg 480 -37 112;
#X obj 435 233 count 48;
#X obj 568 280 r \$0-nbeat;
#X obj 226 300 mod 12;
#X obj 226 320 sel 0;
#X obj 359 320 sel 0;
#X obj 359 300 mod 6;
#X obj 638 300 sel 0;
#X obj 638 280 mod 3;
#X obj 568 300 * 3;
#X obj 499 320 sel 0;
#X obj 499 300 mod 4;
#X obj 257 340 r \$0-reset;
#X obj 226 360 counter 0 3;
#X obj 289 299 - 1;
#X obj 422 320 - 1;
#X obj 359 360 counter 0 7;
#X obj 390 340 r \$0-reset;
#X obj 499 359 counter 0 11;
#X obj 533 340 r \$0-reset;
#X obj 568 320 - 1;
#X obj 638 360 counter 0 15;
#X obj 672 340 r \$0-reset;
#X obj 707 320 - 1;
#X connect 1 0 14 0;
#X connect 3 0 6 0;
#X connect 3 0 15 0;
#X connect 3 0 26 0;
#X connect 4 0 35 0;
#X connect 6 0 5 0;
#X connect 7 0 4 0;
#X connect 8 0 1 0;
#X connect 11 0 9 0;
#X connect 13 0 12 0;
#X connect 16 0 53 0;
#X connect 17 0 54 0;
#X connect 18 0 17 0;
#X connect 19 0 36 1;
#X connect 21 0 20 0;
#X connect 22 0 23 0;
#X connect 23 0 62 0;
#X connect 25 0 24 0;
#X connect 26 0 27 0;
#X connect 32 0 3 0;
#X connect 33 0 7 0;
#X connect 34 0 19 0;
#X connect 35 0 34 0;
#X connect 36 0 40 0;
#X connect 37 0 36 0;
#X connect 38 0 3 0;
#X connect 39 0 7 0;
#X connect 40 0 42 0;
#X connect 40 0 45 0;
#X connect 40 0 47 0;
#X connect 40 0 50 0;
#X connect 41 0 48 0;
#X connect 42 0 43 0;
#X connect 43 0 52 0;
#X connect 44 0 55 0;
#X connect 45 0 44 0;
#X connect 46 0 60 0;
#X connect 47 0 46 0;
#X connect 48 0 59 0;
#X connect 49 0 57 0;
#X connect 50 0 49 0;
#X connect 51 0 52 2;
#X connect 52 0 11 0;
#X connect 52 0 10 0;
#X connect 53 0 52 4;
#X connect 54 0 55 4;
#X connect 55 0 13 0;
#X connect 56 0 55 2;
#X connect 57 0 25 0;
#X connect 58 0 57 2;
#X connect 59 0 57 4;
#X connect 60 0 21 0;
#X connect 61 0 60 2;
#X connect 62 0 60 4;
#X coords 0 -1 1 1 130 93 1 439 12;
