#N canvas 0 42 2560 1375 10;
#X obj 341 147 inlet;
#X obj 396 268 outlet;
#X obj 341 167 t f f;
#X obj 396 249 +;
#X obj 341 192 mod 7;
#X obj 469 192 div 7;
#X obj 469 217 * 12;
#X obj 341 217 tabread \$0-intervals;
#X obj 416 160 r \$0-intervals_length;
#X msg 711 209 0 2 4 5 7 9 11;
#X text 806 209 Major;
#X obj 711 350 t l l;
#X obj 711 404 prepend 0;
#X obj 711 430 s \$0-intervals;
#X obj 773 379 list length;
#X msg 773 404 resize \$1;
#X obj 838 404 s \$0-intervals_length;
#X msg 737 239 0 2 4 6 7 9 10;
#X text 833 239 Bartok;
#X msg 752 268 0 2 3 5 6 8 10;
#X text 848 268 Half-Dim;
#X msg 766 295 0 1 3 4 6 7 9 10;
#X text 875 295 Octatonic;
#N canvas 0 0 450 300 (subpatch) 0;
#X array \$0-intervals 7 float 3 black black;
#A 0 0 2 4 5 7 9 11;
#X coords 0 12 7 0 200 140 1;
#X restore 474 290 graph;
#X obj 711 146 inlet;
#X obj 711 166 select major bartok halfdim octatonic;
#X connect 0 0 2 0;
#X connect 2 0 4 0;
#X connect 2 1 5 0;
#X connect 3 0 1 0;
#X connect 4 0 7 0;
#X connect 5 0 6 0;
#X connect 6 0 3 1;
#X connect 7 0 3 0;
#X connect 8 0 4 1;
#X connect 8 0 5 1;
#X connect 9 0 11 0;
#X connect 11 0 12 0;
#X connect 11 1 14 0;
#X connect 12 0 13 0;
#X connect 14 0 15 0;
#X connect 14 0 16 0;
#X connect 15 0 13 0;
#X connect 17 0 11 0;
#X connect 19 0 11 0;
#X connect 21 0 11 0;
#X connect 24 0 25 0;
#X connect 25 0 9 0;
#X connect 25 1 17 0;
#X connect 25 2 19 0;
#X connect 25 3 21 0;
