#N canvas 9 4 942 626 10;
#X obj 313 356 dac~;
#X obj 337 101 metro 750;
#X obj 333 41 tgl 15 0 empty empty empty 17 7 0 10 -262144 -1 -1 1
1;
#X obj 324 211 kick/01~;
#X obj 451 245 snare/02~;
#X connect 1 0 3 0;
#X connect 1 0 4 0;
#X connect 2 0 1 0;
#X connect 4 0 0 1;
#X connect 4 0 0 0;
