#N canvas -7 0 942 977 10;
#X obj 214 163 wavemix~;
#X floatatom 196 118 5 0 0 0 - - -, f 5;
#X obj 215 316 dac~;
#X obj 197 82 metro 100;
#X obj 189 35 tgl 15 0 empty empty empty 17 7 0 10 -262144 -1 -1 1
1;
#X connect 0 0 2 0;
#X connect 0 0 2 1;
#X connect 1 0 0 0;
#X connect 3 0 1 0;
#X connect 4 0 3 0;
