#N canvas 1 41 958 1135 10;
#X obj 46 35 ../patches/metronome;
#X obj 46 120 dac~;
#X obj 107 118 bng 15 250 50 0 empty empty empty 17 7 0 10 -262144
-1 -1;
#X floatatom 169 118 5 0 0 0 - - -, f 5;
#X connect 0 0 1 0;
#X connect 0 0 1 1;
#X connect 0 1 2 0;
#X connect 0 2 3 0;
